<svg xmlns="http://www.w3.org/2000/svg" aria-hidden="true" style="position:absolute;width:0;height:0;overflow:hidden">
  <defs>
    <symbol id="icon-directory" viewBox="0 0 32 32">
      <path fill="#fbd965" d="M16 32c8.832 0 16-7.168 16-16S24.832 0 16 0 0 7.168 0 16s7.168 16 16 16z" style="fill:var(--color1, #fbd965)"/>
      <path fill="#171c8f" d="M16.64 29.653c0 .053-.032.085-.085.085l-.747-.011c-.523-.011-.832-.373-.821-.939l.032-2.517c.011-.565.331-.928.843-.917l.747.011c.053 0 .085.032.085.085l-.053 4.203zm-.651-3.722h-.139c-.192 0-.224.139-.224.48l-.032 2.24c0 .341.032.48.213.491h.139c.053 0 .085-.032.085-.085l.043-3.029c0-.053-.032-.096-.085-.096zM14.432 25.312l-.832 4.117c-.011.053-.043.075-.107.064l-.427-.085c-.053-.011-.075-.053-.064-.107l.832-4.117c.011-.053.043-.085.107-.064l.427.085a.088.088 0 0 1 .064.107zM13.184 25.035l-1.579 3.893c-.021.053-.064.075-.117.053l-.693-.277c-.459-.181-.64-.651-.427-1.173l.288-.715c.117-.288.288-.459.501-.555.032-.021.064-.043.075-.085l.405-1.717c.021-.096.064-.107.107-.085l.395.16c.053.021.075.053.053.139l-.384 1.515c-.011.053 0 .096.053.117l.043.021c.053.021.096 0 .117-.053l.587-1.461c.021-.053.064-.075.117-.053l.405.16c.053.021.064.075.053.117zm-1.621 1.77c-.149-.064-.256.053-.384.363l-.192.459c-.128.309-.117.469.021.533l.128.053c.053.021.096 0 .117-.053l.48-1.195c.021-.053 0-.096-.053-.117l-.117-.043zM8.853 27.627c-.032.043-.075.053-.117.021l-.875-.597c-.043-.032-.053-.075-.021-.117l.213-.309c.032-.043.075-.053.117-.021l.363.245c.043.032.096.021.117-.021l.651-.971c.032-.043.021-.096-.021-.117l-.363-.245c-.043-.032-.053-.075-.021-.117l.213-.309c.032-.043.075-.053.117-.021l.363.245c.043.032.096.021.117-.021l.683-1.003c.032-.043.021-.096-.021-.117l-.363-.245c-.043-.032-.053-.075-.021-.117l.213-.309c.032-.043.075-.053.117-.021l.875.597c.043.032.053.075.021.117L8.853 27.63zM7.339 25.493c-.405.395-.885.416-1.248.043s-.32-.853.085-1.248l.341-.331c.043-.032.085-.032.128 0l.299.32c.032.043.032.085 0 .128l-.245.235c-.245.235-.32.363-.192.501s.256.053.501-.181l1.653-1.6c.245-.235.32-.363.192-.501-.128-.128-.256-.053-.501.181l-.245.235c-.043.032-.085.032-.128 0l-.299-.32c-.032-.043-.032-.085 0-.128l.341-.331c.405-.395.885-.416 1.248-.043s.32.853-.085 1.248l-1.845 1.792zM4.864 23.893c-.043.032-.096.021-.117-.032l-.683-1.077c-.032-.043-.021-.085.032-.117l.341-.213c.043-.032.096-.021.117.032l.139.213c.032.043.075.053.117.032L7.871 20.8c.043-.032.085-.021.117.032l.235.373c.032.043.021.096-.032.117L5.13 23.253c-.043.032-.053.075-.032.117l.128.203c.032.043.021.085-.032.117l-.331.203zM4.277 21.259c-.533.192-.981.032-1.163-.459s.053-.907.576-1.109l2.421-.896c.533-.192.981-.032 1.163.459s-.053.907-.576 1.109l-2.421.896zm2.454-1.803c-.064-.171-.213-.16-.533-.043l-2.155.8c-.32.117-.437.203-.373.373s.213.16.533.043l2.155-.8c.309-.107.437-.192.373-.373zM6.752 17.963l-4.171.533c-.053.011-.085-.021-.096-.075l-.096-.736c-.064-.491.256-.875.811-.949l.768-.096c.309-.043.544.021.725.171.032.021.064.032.117.021l1.696-.491c.096-.021.128 0 .128.053l.053.427c.011.053-.011.096-.096.117l-1.515.405c-.053.011-.085.043-.075.096l.011.043c.011.053.043.085.096.075l1.568-.203c.053-.011.085.021.096.075l.053.437c.011.053-.021.096-.075.096zm-2.336-.534c-.021-.16-.171-.203-.512-.16l-.491.064c-.331.043-.469.128-.448.277l.021.128c.011.053.043.085.096.075l1.269-.16c.053-.011.085-.043.075-.096l-.011-.128zM6.592 15.499l-1.472-.128h-.075l-2.677.288c-.053.011-.085-.021-.085-.075l.043-.469c0-.043.043-.075.096-.075l1.579-.064c.032 0 .032-.053 0-.053l-1.547-.331c-.053-.011-.085-.053-.085-.085l.043-.469c0-.043.043-.075.096-.053l2.592.747a.176.176 0 0 0 .075.011l1.472.128c.053 0 .085.043.075.096l-.043.459c0 .053-.043.085-.085.075zM3.829 9.835c-.043-.021-.064-.075-.032-.117l.373-.64c.267-.448.736-.533 1.227-.256l2.176 1.269c.491.288.64.736.384 1.184l-.373.64c-.021.043-.075.053-.117.032L3.83 9.835zm3.552 1.269.075-.117c.096-.16-.011-.267-.309-.437L5.206 9.419c-.288-.171-.437-.213-.533-.053l-.064.128c-.021.043-.011.085.032.117l2.624 1.525c.043.021.085.021.117-.032zM8.693 10.059 5.525 7.296c-.043-.032-.043-.075-.011-.128l.288-.331c.032-.043.085-.043.128-.011l3.168 2.763c.043.032.043.075.011.128l-.288.331a.097.097 0 0 1-.128.011zM9.547 9.099 6.934 5.814c-.032-.043-.032-.085.011-.128l.587-.469c.384-.309.875-.235 1.227.203l.48.608c.192.245.256.469.235.704 0 .032 0 .075.043.107l1.291 1.195c.064.064.064.107.021.139l-.331.267c-.043.032-.085.043-.149-.021l-1.12-1.067c-.032-.043-.085-.043-.128-.011l-.032.021c-.043.032-.043.085-.011.128l.971 1.227c.032.043.032.085-.011.128l-.341.277c-.043.021-.085.021-.128-.021zm-.736-2.272c.128-.096.085-.256-.128-.512l-.309-.384c-.213-.267-.352-.341-.48-.245l-.107.085c-.043.032-.043.085-.011.128l.8 1.003c.032.043.085.043.128.011l.107-.085zM9.419 4.064c-.021-.043-.011-.096.043-.117l.949-.469c.043-.021.096-.011.117.043l.171.331c.021.043.011.096-.043.117l-.405.192c-.043.021-.064.075-.043.117l.523 1.045c.021.043.075.064.117.043l.395-.192c.043-.021.096-.011.117.043l.171.331c.021.043.011.096-.043.117l-.395.192c-.043.021-.064.075-.043.117l.544 1.088c.021.043.075.064.117.043l.395-.192c.043-.021.096-.011.117.043l.171.331c.021.043.011.096-.043.117l-.949.469c-.043.021-.096.011-.117-.043L9.418 4.065zM12.032 3.797c-.139-.544.075-.981.576-1.109s.896.139 1.035.693l.117.459c.011.053-.011.096-.064.107l-.427.107c-.053.011-.096-.011-.107-.064l-.085-.331c-.085-.331-.16-.459-.331-.416-.181.043-.181.192-.096.523l.565 2.229c.085.331.149.459.331.416.171-.043.181-.192.096-.523l-.085-.331c-.011-.053.011-.096.064-.107l.427-.107c.053-.011.096.011.107.064l.117.459c.139.544-.075.981-.576 1.109s-.896-.139-1.035-.693l-.629-2.485zM14.645 2.432c0-.053.032-.085.085-.096l1.28-.064c.053 0 .085.021.096.085l.021.405c0 .053-.032.085-.085.096l-.256.011c-.053 0-.085.043-.085.096l.171 3.616c0 .053-.021.085-.085.096l-.437.021c-.053 0-.085-.032-.096-.085l-.171-3.616c0-.053-.043-.085-.096-.085l-.235.011c-.053 0-.085-.021-.096-.085l-.011-.405zM17.205 3.221c.085-.555.459-.864.971-.789.512.085.768.491.683 1.045l-.405 2.56c-.085.555-.459.864-.971.789-.512-.085-.768-.491-.683-1.045l.405-2.56zm.363 3.019c.181.032.245-.107.299-.448l.363-2.272c.053-.331.043-.48-.139-.512s-.245.107-.299.448l-.363 2.272c-.053.331-.043.48.139.512zM18.869 6.997l1.589-3.893c.021-.053.064-.075.117-.043l.693.288c.459.181.64.651.416 1.173l-.288.715c-.117.288-.288.459-.501.555-.032.021-.064.043-.075.085l-.416 1.717c-.021.096-.064.107-.107.085l-.395-.16c-.053-.021-.075-.053-.053-.139l.395-1.515c.011-.053 0-.096-.043-.117l-.043-.021c-.053-.021-.096 0-.117.043l-.597 1.461c-.021.053-.064.075-.117.043l-.405-.171c-.053-.011-.075-.064-.053-.107zm1.622-1.76c.149.064.256-.053.384-.363l.181-.459c.128-.309.128-.469-.021-.533l-.128-.053c-.053-.021-.096 0-.117.043l-.491 1.184c-.021.053 0 .096.043.117l.149.064zM21.088 8.064l.843-1.216c.011-.021.032-.043.043-.064l1.067-2.475c.021-.053.064-.064.107-.032l.384.267c.032.021.043.075.021.117l-.725 1.397c-.011.032.032.053.053.032l1.056-1.173c.032-.043.085-.053.117-.021l.384.267c.043.021.043.075 0 .107l-1.931 1.877c-.021.011-.032.043-.053.064l-.843 1.216c-.032.043-.075.053-.117.021l-.384-.267c-.043-.021-.053-.075-.021-.117zM27.381 8.459c.043-.021.085-.021.117.032l.373.651c.267.448.107.907-.384 1.184l-2.176 1.269c-.491.288-.96.192-1.227-.256l-.373-.651c-.021-.043-.011-.096.032-.117l3.637-2.112zm-2.858 2.464.075.117c.096.16.235.117.533-.053l1.941-1.131c.288-.171.405-.277.309-.437l-.075-.117c-.021-.043-.075-.053-.117-.021l-2.624 1.525c-.053.032-.064.075-.043.117zM24.8 12.587l3.968-1.397c.053-.021.096 0 .107.053l.149.416c.021.053 0 .096-.053.107l-3.968 1.397c-.053.021-.096 0-.107-.053l-.149-.416c-.021-.043 0-.085.053-.107zM25.195 13.792l4.149-.651c.053-.011.096.011.096.075l.117.736c.075.48-.224.885-.789.971l-.757.117c-.309.043-.544-.011-.736-.149-.032-.021-.064-.032-.117-.021l-1.685.533c-.085.021-.128 0-.128-.053l-.064-.416c-.011-.053.011-.096.096-.117l1.504-.448c.053-.011.085-.053.075-.096l-.011-.043c-.011-.053-.053-.085-.096-.075l-1.557.245c-.053.011-.096-.011-.096-.075l-.064-.437c-.011-.043.021-.085.064-.096zm2.357.48c.021.16.181.192.512.149l.48-.075c.331-.053.469-.139.448-.299l-.021-.128c-.011-.053-.053-.085-.096-.075l-1.269.203c-.053.011-.085.053-.075.096l.021.128zM29.643 16.171c.053 0 .085.032.085.096l-.053 1.056c0 .053-.043.085-.096.085l-.373-.021c-.053 0-.085-.043-.085-.096l.021-.448c0-.053-.032-.085-.085-.096l-1.163-.064c-.053 0-.085.032-.096.085l-.021.448c0 .053-.043.085-.096.085l-.373-.021c-.053 0-.085-.043-.085-.096l.021-.448c0-.053-.032-.085-.085-.096l-1.216-.064c-.053 0-.085.032-.096.085l-.021.448c0 .053-.043.085-.096.085l-.341-.021c-.053 0-.085-.043-.085-.096l.053-1.056c0-.053.043-.085.096-.085l4.192.235zM28.587 18.581c.544.149.811.544.683 1.045-.139.501-.565.715-1.109.565l-.459-.128c-.053-.011-.075-.053-.064-.107l.117-.427c.011-.053.053-.075.107-.064l.331.085c.331.085.48.085.523-.085.053-.181-.085-.256-.405-.341l-2.219-.597c-.331-.085-.48-.096-.523.085-.043.171.085.256.405.341l.331.085c.053.011.075.053.064.107l-.117.427c-.011.053-.053.075-.107.064l-.459-.128c-.544-.149-.811-.544-.683-1.045.139-.501.565-.715 1.109-.565l2.475.683zM28.491 21.525c.043.021.064.075.043.117l-.576 1.141c-.021.043-.064.064-.117.043l-.363-.181c-.043-.021-.064-.075-.043-.117l.117-.224c.021-.043.011-.096-.043-.117l-3.232-1.643c-.043-.021-.064-.064-.043-.117l.203-.395c.021-.043.075-.064.117-.043l3.232 1.643c.043.021.096.011.117-.043l.107-.213c.021-.043.064-.064.117-.043l.363.192zM26.528 23.371c.437.352.523.821.203 1.227s-.8.427-1.248.075l-2.016-1.611c-.437-.352-.523-.821-.203-1.227s.8-.427 1.248-.075l2.016 1.611zm-2.805-1.174c-.117.149-.021.267.235.48l1.792 1.44c.267.213.395.277.512.128s.021-.267-.235-.48l-1.792-1.44c-.256-.213-.395-.277-.512-.128zM22.443 22.944l2.603 3.296c.032.043.032.085-.011.128l-.587.459c-.384.299-.875.235-1.227-.213l-.48-.608c-.192-.245-.256-.469-.235-.704 0-.032 0-.075-.043-.107l-1.291-1.205c-.064-.064-.064-.107-.021-.139l.331-.267c.043-.032.085-.043.149.021l1.131 1.088c.032.043.085.043.128.011l.032-.032c.043-.032.043-.085.011-.128l-.981-1.237c-.032-.043-.032-.085.011-.128l.341-.267c.053-.021.107-.011.139.032zm.736 2.283c-.128.096-.085.256.128.523l.299.384c.213.267.352.341.469.245l.107-.085c.043-.032.043-.085.011-.128l-.8-1.003c-.032-.043-.085-.043-.128-.011l-.085.075zM20.416 24.352l.651 1.333c.011.021.021.043.043.064l1.621 2.155c.032.043.021.085-.021.107l-.416.203c-.032.021-.085 0-.107-.043l-.864-1.323c-.021-.021-.064 0-.053.021l.501 1.493c.021.053 0 .096-.032.117l-.416.203c-.043.021-.085 0-.096-.053l-.683-2.603c0-.021-.021-.053-.032-.075l-.651-1.333c-.021-.043-.011-.096.043-.117l.416-.203c.021-.011.064.011.096.053zM16.96 14.091l-.469.437 1.344 1.376h-4.864v.64h4.864l-1.344 1.387.469.437 2.069-2.144-2.069-2.133z" style="fill:var(--color2, #171c8f)"/>
    </symbol>
    <symbol id="icon-leaves1" viewBox="0 0 48 32">
      <path fill="#e06ba9" d="M6.096 5.137C3.868 7.075 2.133 9.393.786 12.003c-1.425 2.774-.872 6.418 1.261 8.607 2.236 2.292 4.956 2.636 8.186 1.154 3.255-1.491 5.777-3.929 8.333-6.324.57-.534 1.019-1.258 1.865-1.534.061.241.129.362.104.457-.138.517-.302 1.025-.449 1.534-1.002 3.541-1.287 7.099-.363 10.718 1.399 5.445 7.366 7.168 11.424 3.265 1.986-1.904 2.849-4.334 3.238-6.97.164-1.129.19-2.283.294-3.584.734.612.829 1.284 1.071 1.869.95 2.266 2.141 4.359 3.946 6.074 1.356 1.284 2.996 1.964 4.784 2.206 1.572.215 2.884-.267 3.782-1.223V-4.995H19.853a39.722 39.722 0 0 1-2.262 1.714C13.697-.576 9.699 2.017 6.098 5.136z" style="fill:var(--color3, #e06ba9)"/>
    </symbol>
    <symbol id="icon-leaves2" viewBox="0 0 44 32">
      <path fill="#f5333f" d="M43.983 9.709c-.008-.014-.013-.032-.021-.047-.718-1.633-3.055-2.395-6.41-2.089-3.118.284-6.224 1.435-7.103 1.784-.279.111-.562.223-.849.334-1.445.572-2.937 1.165-4.128 1.532-1.741.536-2.024.327-2.049.302a.358.358 0 0 1-.089-.133c-.347-.788.972-2.895 2.447-4.474 1.297-1.392 2.438-3.438 1.749-5.002-.22-.496-.608-.921-1.154-1.255-1.276-.777-2.59-.87-3.921-.273-1.153.518-2.125 1.471-2.848 2.244-1.648 1.769-3.431 4.427-4.64 6.347a34.582 34.582 0 0 0-.963 1.643c-.321.568-.6 1.061-.854 1.417-.296.417-.444.478-.473.489-.051-.022-.097-.076-.135-.158-.177-.406-.076-1.248.021-2.061.085-.69.169-1.406.106-1.974-.097-.827-.258-1.899-.672-2.837-.444-1.014-1.099-1.661-1.944-1.931-2.032-.644-4.035 1.172-4.606 2.244-.579 1.082-.748 3.87-.325 5.326.723 2.496.562 3.373.3 3.668-.473.536-1.699.554-3.651.061a27.965 27.965 0 0 1-1.77-.521v5.135c.963.252 1.906.399 2.742.532 1.487.234 2.666.421 3.182 1.021.199.23.41.601.63 1.104.194.446.385.964.566 1.514.258.773.499 1.608.723 2.381.156.539.304 1.05.448 1.507.051.165.118.338.194.518.71 1.615 2.392 3.528 4.111 3.884.735.155 1.424.004 1.99-.428 1.082-.827 1.377-1.751.908-2.82-.258-.583-.71-1.154-1.149-1.708-.106-.137-.216-.273-.321-.41-.101-.133-.207-.266-.308-.399-.537-.691-1.094-1.403-1.339-1.96-.123-.273-.139-.45-.114-.565.038-.158.169-.205.266-.237.08-.029.334-.054.968.237.418.194 1.006.525 1.825 1.09 1.331.921 2.784 2.115 3.845 2.985.173.144.338.277.486.399 1.644 1.341 4.082 2.935 6.347 2.891.984-.018 1.842-.349 2.548-.978.816-.73 1.04-1.536.659-2.402-.663-1.511-3.085-2.848-4.69-3.733-.156-.086-.308-.169-.448-.248-.004-.004-.008-.004-.013-.007-.161-.09-.325-.183-.499-.277-1.584-.881-3.752-2.086-4.073-2.816-.063-.14-.013-.183.021-.216.047-.043.545-.385 3.494.37 1.597.41 3.613 1.068 5.388 1.762 1.175.457 2.239.849 3.211 1.176 2.417.816 4.238 1.241 5.603 1.313.942.05 2.903-.244 4.158-1.244.03-.021.055-.047.08-.068.663-.561 1.001-1.237 1.006-2.017 0-.5-.089-.96-.27-1.374-.625-1.42-2.328-2.276-4.935-2.478-.997-.076-1.999-.061-2.966-.043-.896.014-1.741.029-2.501-.032a33.335 33.335 0 0 1-3.9-.557c-1.449-.309-1.91-.554-2.041-.647.089-.079.347-.223 1.116-.371.794-.151 1.884-.266 3.152-.396 2.138-.223 4.804-.5 7.369-1.104 3.465-.82 5.603-1.859 6.359-3.093.372-.586.418-1.198.156-1.827z" style="fill:var(--color4, #f5333f)"/>
    </symbol>
    <symbol id="icon-leaves3" viewBox="0 0 40 32">
      <path fill="#7ba3d6" d="M36.02 0c.865.147.928.721 1.089 1.161 2.555 7.017 4.634 14.174 5.249 21.631C43.377 35.07 30.66 43.843 20.966 40.996 14.636 39.135 10.329 34.588 7 29.082c-3.183-5.289-4.446-11.34-6.512-17.07-.188-.525-.565-1.161-.042-1.644.53-.483 1.131-.035 1.605.231a714.97 714.97 0 0 1 9.513 5.527c1.954 1.154 2.247 1.084 2.903-1.119.97-3.288 1.905-6.59 2.841-9.885.44-1.546.998-1.868 2.324-.602 2.659 2.533 5.479 4.897 8.236 7.325 2.352 2.071 2.547 1.966 3.643-.881C32.935 7.256 34.526 3.618 36.02.001z" style="fill:var(--color5, #7ba3d6)"/>
    </symbol>
    <symbol id="icon-leaves4" viewBox="0 0 22 32">
      <path fill="#7ba3d6" d="M12.683.03c1.038-.115 2.108.136 3.182.323.507.088.769.266.407.812-2.024 3.04-4.473 5.591-7.99 6.874-2.54.927-5.125.975-7.728.229-.555-.163-.703-.392-.404-.936C2.252 3.516 5.365 1.095 9.687.286c.974-.181 1.939-.314 2.995-.257z" style="fill:var(--color5, #7ba3d6)"/>
      <path fill="#ee3441" d="M3.113 11.004c-1.55.453-2.096 2.005-1.752 3.378.229.912 1.475 1.992 2.911 1.588 1.493-.42 2.443-1.866 2.042-3.152-.404-1.286-1.909-2.192-3.2-1.814z" style="fill:var(--color6, #ee3441)"/>
      <path fill="#f5c2cb" d="M21.696 30.539c-.069.078-.148.16-.235.238-.778.728-2.093 1.389-2.998 1.183a1.11 1.11 0 0 1-.817-.703c-.281-.709-.166-1.289.35-1.769.281-.263.651-.471 1.007-.673l.262-.151c.084-.048.169-.1.256-.148.443-.254.902-.519 1.167-.767.314-.293.211-.411.151-.48-.051-.057-.32-.223-1.677.079-.878.196-1.888.513-2.627.749-.121.039-.235.072-.338.106-1.143.356-2.724.664-3.776.109a1.846 1.846 0 0 1-.926-1.135c-.184-.595-.063-1.093.35-1.479.727-.679 2.232-.851 3.23-.963.097-.012.19-.021.277-.033l.317-.036c.986-.115 2.338-.275 2.687-.601.069-.063.057-.1.048-.124-.012-.033-.151-.341-1.743-.616a23.535 23.535 0 0 0-3.016-.29c-2.365-.078-3.897-.296-4.823-.688-.455-.193-1.297-.815-1.611-1.663-.181-.486-.16-.96.063-1.407.136-.278.305-.51.504-.694.685-.637 1.722-.712 2.998-.214.489.19.956.435 1.406.67.416.217.808.423 1.185.568.63.241 1.372.468 1.988.607.766.169 1.05.142 1.137.121-.018-.063-.103-.205-.422-.468-.332-.269-.814-.589-1.372-.957-.944-.625-2.117-1.401-3.158-2.34-1.403-1.265-2.12-2.34-2.136-3.197a1.363 1.363 0 0 1 .437-1.041c.009-.006.015-.015.024-.021.787-.734 2.093-.607 3.583.347 1.384.888 2.528 2.252 2.844 2.648l.305.383c.522.655 1.059 1.331 1.517 1.814.67.703.86.655.881.649a.25.25 0 0 0 .078-.051c.38-.353.341-1.826.084-3.046-.226-1.072-.199-2.469.555-3.173.238-.223.537-.365.887-.423.736-.121 1.336.085 1.786.604v17.672l-.063.076c-.223.266-.434.513-.627.731z" style="fill:var(--color7, #f5c2cb)"/>
    </symbol>
    <symbol id="icon-line" viewBox="0 0 44 32">
      <path fill="#2d3185" d="M22.222 0C9.995 0 0 9.956 0 22.133V32h44.444v-9.867C44.444 9.955 34.493 0 22.222 0zM.848 31.156v-9.022C.848 10.401 10.442.845 22.222.845s21.374 9.556 21.374 21.289v8.978H.847v.044z" style="fill:var(--color8, #2d3185)"/>
      <path fill="#2d3185" d="M36.858 23.2H25.613l10.977-2.933c.223-.044.357-.311.312-.533s-.312-.356-.535-.311l-10.933 2.978 9.906-5.689c.223-.133.268-.356.134-.578s-.357-.267-.58-.133l-9.951 5.689 8.166-8.133c.089-.089.134-.178.134-.311s-.045-.222-.134-.311c-.089-.089-.178-.133-.312-.133s-.223.044-.312.133l-8.077 8.089 5.801-10c.134-.222.045-.444-.134-.578-.089-.044-.223-.089-.312-.044s-.178.089-.268.178l-5.89 10.178L26.684 9.38c.045-.222-.089-.444-.312-.533a.485.485 0 0 0-.535.311l-2.99 11.111V8.713c0-.222-.178-.4-.402-.4s-.402.178-.402.4v11.556l-3.034-11.2c-.045-.089-.089-.222-.178-.267s-.223-.089-.312-.044c-.223.044-.357.311-.312.533l3.079 11.467-6.024-10.311c-.134-.222-.357-.267-.58-.133a.3.3 0 0 0-.178.267c-.045.089 0 .222.045.311l5.89 10.178-8.3-8.311c-.089-.089-.178-.133-.312-.133s-.223.044-.312.133c-.089.089-.134.178-.134.311s.045.222.134.311l8.344 8.311-10.174-5.867c-.089-.044-.223-.089-.312-.044s-.178.089-.268.178c-.134.222-.045.444.134.578l10.174 5.867-11.29-3.022c-.089-.044-.223 0-.312.044s-.178.133-.178.267c-.045.089 0 .222.045.311s.134.178.268.178l11.245 3.022H7.589a.4.4 0 1 0 0 .8h29.273c.223 0 .402-.178.402-.4s-.134-.4-.402-.4z" style="fill:var(--color8, #2d3185)"/>
    </symbol>
    <symbol id="icon-logo" viewBox="0 0 222 32">
      <path fill="#fff" d="M7.691 1.6A3.508 3.508 0 0 0 6.443.44C5.879.16 5.114 0 4.148 0c-.926 0-1.691.16-2.255.48C1.329.76.927 1.16.645 1.6s-.483.92-.564 1.44C.041 3.52 0 3.96 0 4.36v23.28c0 .4.04.84.081 1.32.081.52.242 1 .523 1.44s.725.84 1.248 1.16c.604.28 1.369.44 2.336.44s1.732-.16 2.255-.44c.564-.32.966-.68 1.248-1.16.282-.44.443-.92.483-1.44.081-.48.081-.92.081-1.32v-11H4.107v2.16H6.12v8.68c0 .24 0 .52-.04.8 0 .28-.081.56-.201.8s-.282.44-.564.6c-.242.16-.644.24-1.168.24s-.886-.08-1.168-.24c-.282-.16-.483-.36-.604-.6s-.201-.52-.201-.8-.04-.56-.04-.8V4.52c0-.24 0-.52.04-.8 0-.28.081-.56.201-.8s.322-.44.604-.6c.282-.16.644-.24 1.168-.24.483 0 .886.08 1.168.24.242.16.443.36.564.6s.201.52.201.8c0 .32.04.56.04.8v3.96h2.174V4.36c0-.4-.04-.84-.081-1.32-.081-.52-.282-1-.523-1.44zM20.416.24h-2.98l-3.503 31.32-.04.2h2.215l.805-8.68h4.027l.805 8.52v.16h2.174L20.416.4V.24zm-1.49 3.48L20.698 21h-3.584l1.812-17.28zM36.926 17.4c.403-.32.725-.76.926-1.28.242-.56.362-1.24.362-2.04V4.36c0-.6-.081-1.16-.242-1.64-.161-.52-.403-.96-.765-1.32s-.805-.64-1.329-.84c-.523-.2-1.208-.28-1.933-.28h-4.027v31.48h2.175V18.24h1.772c.242 0 .443 0 .644-.04.161 0 .282-.04.443-.04l1.53 13.44.04.16h2.215l-1.731-14-.081-.36zM36.04 4.72v9.04c0 .48-.04.88-.121 1.24-.081.32-.201.56-.362.76s-.403.32-.685.4-.644.12-1.087.12h-1.772V2.24h1.933c.765 0 1.329.2 1.611.56.322.36.483 1 .483 1.92zM52.107 1.52c-.322-.4-.805-.72-1.369-.96S49.409.24 48.523.24h-3.866v31.48h3.866c.886 0 1.651-.12 2.215-.32.604-.2 1.047-.52 1.369-.92s.564-.88.685-1.44c.121-.56.161-1.16.161-1.84V4.8c0-.68-.04-1.28-.161-1.84a3.666 3.666 0 0 0-.685-1.44zm-5.316.72h1.651c.403 0 .765.04 1.087.08.282.04.523.16.685.36.201.16.322.44.403.76s.121.8.121 1.36v22.4c0 .56-.04 1.04-.161 1.36-.081.32-.242.6-.403.76s-.403.28-.685.36-.644.08-1.087.08h-1.651V2.24h.04zM59.758 31.76h7.168V29.8h-4.993V16.64h4.148V14.6h-4.148V2.28h4.993V.24h-7.168v31.52zM78.804 24.12 75.26.4l-.04-.16h-2.779v31.52h2.054l-.081-25.72 3.544 25.56.04.16h2.779V.24h-2.013l.04 23.88zM104.455 2.56c-.08-.32-.241-.64-.403-.96s-.442-.6-.725-.84a3.295 3.295 0 0 0-1.128-.56c-.442-.16-1.006-.2-1.61-.2-.967 0-1.732.16-2.255.44-.564.32-.967.68-1.288 1.16-.282.44-.443.92-.523 1.44-.081.48-.121.92-.121 1.32v23.28c0 .4.04.84.121 1.32.08.52.241 1 .523 1.44s.725.84 1.248 1.16c.564.32 1.329.48 2.296.48s1.732-.16 2.255-.48c.564-.32.967-.68 1.248-1.16.282-.44.443-.92.484-1.44.08-.48.08-.92.08-1.32v-4.12h-2.174v4.76c0 .28-.081.56-.201.8-.12.24-.282.44-.564.6-.242.16-.645.24-1.128.24h-.04c-.523 0-.886-.08-1.168-.24s-.483-.36-.603-.6c-.121-.24-.201-.52-.201-.8s-.04-.56-.04-.8V4.52c0-.24 0-.52.04-.8 0-.28.08-.56.201-.8s.322-.44.603-.6c.282-.16.645-.24 1.168-.24s.886.08 1.168.24c.242.16.443.36.564.6s.201.52.201.8c0 .32.04.6.04.8v3.96h2.174V4.36c0-.24 0-.56-.04-.88-.04-.28-.12-.6-.201-.92zM111.944.24h-2.174v31.48h2.174V.24zM115.811 2.24h3.1v29.52h2.174V2.24h3.061v-2h-8.335v2zM131.917 14.56 129.702.4V.24h-2.255l3.383 18.32v13.2h2.175V18.6L136.347.44l.04-.2h-2.255l-2.216 14.32zM157.327 2.56c-.081-.32-.242-.64-.403-.96s-.443-.6-.725-.84a3.314 3.314 0 0 0-1.128-.56c-.443-.16-1.007-.2-1.611-.2-.967 0-1.732.16-2.255.44-.564.32-.967.68-1.288 1.16-.281.44-.442.92-.523 1.44-.081.48-.12.92-.12 1.32v23.28c0 .4.04.84.12 1.32.081.52.242 1 .523 1.44s.725.84 1.248 1.16c.564.32 1.329.48 2.296.48s1.732-.16 2.255-.48c.564-.32.967-.68 1.248-1.16.282-.44.443-.92.484-1.44.08-.48.08-.92.08-1.32v-4.12h-2.174v4.76c0 .28-.08.56-.201.8-.12.24-.281.44-.564.6-.242.16-.644.24-1.128.24h-.04c-.483 0-.886-.08-1.167-.24s-.484-.36-.604-.6-.201-.52-.201-.8c0-.32-.04-.56-.04-.8V4.52c0-.24 0-.48.04-.8 0-.28.081-.56.201-.8s.322-.44.604-.6c.281-.16.644-.24 1.167-.24s.887.08 1.168.24c.242.16.443.36.564.6s.201.52.201.8c0 .32.04.6.04.8v3.96h2.174V4.36c0-.24 0-.56-.04-.88-.08-.28-.12-.6-.2-.92zM163.004 31.76h7.168V29.8h-4.993V16.64h4.147V14.6h-4.147V2.28h4.993V.24h-7.168v31.52zM181.648 25.56 178.104.4l-.04-.16h-2.739v31.52h2.014l-.04-25.36 3.544 25.2v.16h2.778V.24h-2.013l.04 25.32zM188.293 2.24h3.061v29.52h2.174V2.24h3.061v-2h-8.296v2zM201.299 31.76h7.168V29.8h-5.033V16.64h4.187V14.6h-4.187V2.28h5.033V.24h-7.168v31.52zM220.346 17.76l-.081-.36c.403-.32.725-.76.926-1.28.242-.56.362-1.24.362-2.04V4.36c0-.6-.081-1.16-.242-1.64-.161-.52-.403-.96-.765-1.32s-.805-.64-1.328-.84c-.524-.2-1.208-.28-1.933-.28h-4.027v31.48h2.175V18.24h1.771c.242 0 .443 0 .645-.04.161 0 .281-.04.442-.04l1.571 13.44.04.16h2.215l-1.771-14zm-1.41-14.96c.322.36.443 1.04.443 1.92v9.04c0 .48-.04.88-.121 1.24-.08.32-.201.56-.362.76s-.403.32-.684.4c-.282.08-.645.12-1.087.12h-1.772V2.24h1.933c.806 0 1.369.2 1.651.56z" style="fill:var(--color9, #fff)"/>
    </symbol>
    <symbol id="icon-logo-footer" viewBox="0 0 23 32">
      <path d="M11.286 0C5.065 0 0 5.056 0 11.267v20.745h22.561V11.267C22.561 5.056 17.508 0 11.286 0zM.416 31.584V11.267c0-5.98 4.88-10.851 10.87-10.851s10.87 4.872 10.87 10.851v20.329l-21.74-.012z" />
      <path d="M18.722 11.81h-5.77l5.609-1.501a.21.21 0 0 0 .15-.254.212.212 0 0 0-.254-.15l-5.608 1.501 5.088-2.932c.046-.023.081-.069.093-.127s.012-.104-.023-.162c-.035-.058-.069-.081-.127-.092s-.104-.012-.162.023l-5.1 2.944 4.186-4.179c.035-.035.058-.092.058-.15s-.023-.104-.058-.15c-.035-.035-.093-.058-.15-.058s-.104.023-.15.058l-4.163 4.156L15.313 5.6a.21.21 0 0 0-.081-.289c-.046-.023-.104-.035-.162-.023s-.104.046-.127.092l-3.018 5.206 1.573-5.853c.035-.115-.035-.219-.15-.254s-.22.035-.254.15l-1.538 5.714V4.421c0-.115-.092-.208-.208-.208s-.208.092-.208.208v5.934L9.625 4.606c-.012-.058-.046-.104-.092-.127s-.104-.035-.162-.023a.21.21 0 0 0-.15.254l1.584 5.899L7.752 5.31a.21.21 0 0 0-.289-.081c-.046.023-.081.069-.093.127s-.012.104.023.162l3.007 5.218-4.256-4.248a.202.202 0 0 0-.289 0c-.046.035-.069.092-.069.15s.023.104.058.15l4.29 4.283-5.238-3.025c-.104-.058-.231-.023-.289.081s-.023.231.081.289l5.215 3.013-5.782-1.57a.2.2 0 0 0-.162.023.18.18 0 0 0-.093.127c-.035.115.035.219.15.254L9.81 11.81H3.843c-.116 0-.208.092-.208.208s.093.208.208.208h14.871a.207.207 0 0 0 .208-.208c.012-.115-.081-.208-.197-.208zM7.332 16.854c-.023-.104-.058-.219-.116-.323s-.127-.208-.231-.289c-.104-.081-.231-.15-.382-.196s-.335-.069-.555-.069c-.22 0-.405.023-.555.069s-.278.115-.382.208c-.104.081-.185.185-.243.289s-.093.208-.116.323c-.023.104-.035.219-.046.323 0 .104-.012.185-.012.265v9.143c0 .127.012.265.023.416.012.173.069.335.15.485.081.162.22.3.405.404s.439.162.775.162c.324 0 .578-.058.763-.162s.312-.242.405-.404c.081-.15.127-.323.139-.485s.023-.3.023-.416v-4.514H5.839v.543h.96v3.948c0 .093 0 .208-.012.323a.786.786 0 0 1-.081.312.576.576 0 0 1-.208.231c-.093.069-.243.092-.439.092h-.023a.947.947 0 0 1-.451-.092c-.104-.069-.173-.139-.22-.231s-.069-.196-.081-.312c-.012-.115-.012-.231-.012-.323v-9.085c0-.092 0-.196.012-.312.012-.104.035-.208.081-.312.046-.092.116-.173.22-.231s.254-.092.451-.092h.012c.197 0 .347.035.451.092.104.069.173.139.22.231s.069.196.081.312c.012.115.012.219.012.323v1.328h.578v-1.351c0-.081 0-.173-.012-.266 0-.139-.023-.242-.046-.358zM12.72 16.866c-.023-.115-.058-.219-.116-.323s-.127-.208-.231-.289a1.482 1.482 0 0 0-.382-.208c-.15-.046-.335-.069-.555-.069s-.405.023-.555.069c-.15.046-.278.115-.382.208-.104.081-.185.185-.243.289s-.093.208-.116.323c-.023.104-.035.219-.046.323 0 .092-.012.185-.012.265v9.143c0 .081 0 .173.012.265 0 .104.023.208.046.312s.069.219.116.323c.058.115.139.208.243.289s.231.15.382.208c.15.046.335.081.555.081.324 0 .578-.058.763-.162s.312-.242.405-.404c.081-.15.127-.323.139-.485s.023-.3.023-.416v-1.351h-.578v1.328c0 .092 0 .208-.012.323a.777.777 0 0 1-.081.311.57.57 0 0 1-.208.231c-.104.069-.254.093-.451.093s-.347-.035-.451-.093a.681.681 0 0 1-.301-.554c-.012-.115-.012-.219-.012-.323v-9.085c0-.092 0-.196.012-.312.012-.104.035-.208.081-.312.046-.092.116-.173.22-.242s.254-.104.439-.104h.012c.197 0 .347.035.451.092a.493.493 0 0 1 .208.231c.046.092.069.196.081.312s.012.219.012.323v1.328h.578v-1.351c0-.081 0-.173-.012-.265 0-.104-.012-.208-.035-.323zM17.808 16.866c-.023-.104-.058-.219-.116-.323s-.127-.208-.231-.289a1.482 1.482 0 0 0-.382-.208c-.15-.046-.335-.069-.555-.069s-.405.023-.555.069c-.15.046-.278.115-.382.208-.104.081-.185.185-.243.289s-.093.208-.116.323c-.023.104-.035.219-.046.323 0 .104-.012.185-.012.265v9.143c0 .081 0 .162.012.265 0 .104.023.208.046.312s.069.219.116.323c.058.104.139.208.243.289s.231.15.382.208c.15.046.335.081.555.081.324 0 .578-.058.763-.162s.312-.242.405-.404c.081-.15.127-.323.139-.485s.023-.3.023-.416v-1.351h-.578v1.328c0 .092 0 .208-.012.323a.777.777 0 0 1-.081.311.57.57 0 0 1-.208.231c-.104.069-.254.093-.451.093s-.347-.035-.451-.093a.681.681 0 0 1-.301-.554c-.012-.115-.012-.231-.012-.323v-9.085c0-.092 0-.196.012-.312.012-.104.035-.208.081-.312.046-.092.116-.173.22-.242s.254-.104.439-.104h.012c.197 0 .347.035.451.092a.493.493 0 0 1 .208.231c.046.092.069.196.081.312s.012.219.012.323v1.328h.578v-1.351c0-.081 0-.162-.012-.265 0-.104-.012-.219-.035-.323z" />
    </symbol>
    <symbol id="icon-arrow" viewBox="0 0 32 32">
      <path fill="#fff" d="M22.638 16.226a.319.319 0 0 0 0-.452l-2.036-2.036a.32.32 0 0 0-.452.452L21.96 16l-1.81 1.81a.32.32 0 1 0 .452.452l2.037-2.037zm-13.033.094h12.806v-.64H9.605v.64z" style="fill:var(--color9, #fff)"/>
      <path fill="none" stroke="#fff" stroke-width=".64" d="M31.697 16c0 8.66-7.024 15.68-15.688 15.68S.321 24.66.321 16 7.345.32 16.009.32C24.674.32 31.697 7.34 31.697 16z" style="stroke:var(--color9, #fff)"/>
    </symbol>
    <symbol id="icon-wave" viewBox="0 0 717 32">
<path fill="none" d="M0 6.4c23.2 0 23.2 19.2 46.4 19.2s23.2-19.2 46.4-19.2c23.2 0 23.2 19.2 46.4 19.2s23.2-19.2 46.4-19.2"></path>
<path fill="none" stroke="#fff" style="stroke: var(--color1, #fff)" stroke-linejoin="miter" stroke-linecap="butt" stroke-miterlimit="4" stroke-width="11.2" d="M185.6 6.4c21.6 0 21.6 19.2 43.2 19.2s21.6-19.2 43.2-19.2c21.6 0 21.6 19.2 43.2 19.2s21.6-19.2 43.2-19.2"></path>
<path fill="none" stroke="#fff" style="stroke: var(--color1, #fff)" stroke-linejoin="miter" stroke-linecap="butt" stroke-miterlimit="4" stroke-width="11.2" d="M358.4 6.4c23.2 0 23.2 19.2 46.4 19.2s23.2-19.2 46.4-19.2c23.2 0 23.2 19.2 46.4 19.2s23.2-19.2 46.4-19.2"></path>
<path fill="none" stroke="#fff" style="stroke: var(--color1, #fff)" stroke-linejoin="miter" stroke-linecap="butt" stroke-miterlimit="4" stroke-width="11.2" d="M544 6.4c21.6 0 21.6 19.2 43.2 19.2s21.6-19.2 43.2-19.2c21.6 0 21.6 19.2 43.2 19.2s21.6-19.2 43.2-19.2"></path>
</symbol>
  </defs>
</svg>
