<svg width="173" height="253" viewBox="0 0 173 253" fill="none" xmlns="http://www.w3.org/2000/svg">
<g clip-path="url(#clip0_1_683)">
<path d="M19.8745 143.438C16.3979 159.465 0.828354 166.319 -7.23354 179.222C-18.9737 198.071 -15.8497 216.77 -11.5668 235.972C-10.0552 242.726 -5.11729 247.463 1.88647 249.882C33.5798 260.97 65.4242 239.853 65.8777 206.438C66.1296 187.386 64.7188 168.335 63.963 146.21C72.176 154.274 78.3736 160.926 85.1254 166.874C104.927 184.312 132.59 188.596 152.442 177.609C170.581 167.529 176.225 153.417 171.337 130.233C168.364 116.07 158.992 110.274 137.578 108.813C124.729 107.956 111.83 106.847 99.0322 105.587C95.8074 105.285 91.7261 104.982 90.416 101.454C88.9548 97.5736 92.6835 95.4064 95.102 93.34C102.408 87.2416 110.218 81.6472 117.373 75.3472C134.253 60.328 132.237 25.1992 113.695 7.71042C100.846 -4.43598 71.6722 0.150418 57.715 16.732C44.7152 32.1544 41.1378 50.6008 40.7347 70.156C40.5835 76.5568 44.4633 85.4776 37.3084 88.6024C31.01 91.324 25.4675 83.8648 19.9249 80.2864C12.4173 75.3976 5.46394 69.5512 -2.29563 65.0656C-23.5589 52.768 -47.9964 62.3944 -62.2055 88.1488C-74.1472 109.972 -67.4961 128.973 -44.1671 141.018C-30.5626 148.024 -16.4543 149.486 -1.6406 146.966C5.5647 145.756 12.77 144.698 19.9753 143.589C20.4792 143.387 20.9831 143.236 21.4869 143.034C20.9831 143.186 20.4288 143.337 19.8745 143.438Z" fill="#FBDB65"/>
</g>
<defs>
<clipPath id="clip0_1_683">
<rect width="241" height="252" fill="white" transform="translate(-68 0.90625)"/>
</clipPath>
</defs>
</svg>
