<svg aria-hidden="true" style="position: absolute; width: 0; height: 0; overflow: hidden;" version="1.1" xmlns="http://www.w3.org/2000/svg" xmlns:xlink="http://www.w3.org/1999/xlink">
<defs>
<symbol id="icon-directory" viewBox="0 0 32 32">
<path fill="#fbd965" style="fill: var(--color1, #fbd965)" d="M16 32c8.832 0 16-7.168 16-16s-7.168-16-16-16c-8.832 0-16 7.168-16 16s7.168 16 16 16z"></path>
<path fill="#171c8f" style="fill: var(--color2, #171c8f)" d="M16.64 29.653c0 0.053-0.032 0.085-0.085 0.085l-0.747-0.011c-0.523-0.011-0.832-0.373-0.821-0.939l0.032-2.517c0.011-0.565 0.331-0.928 0.843-0.917l0.747 0.011c0.053 0 0.085 0.032 0.085 0.085l-0.053 4.203zM15.989 25.931h-0.139c-0.192 0-0.224 0.139-0.224 0.48l-0.032 2.24c0 0.341 0.032 0.48 0.213 0.491h0.139c0.053 0 0.085-0.032 0.085-0.085l0.043-3.029c0-0.053-0.032-0.096-0.085-0.096z"></path>
<path fill="#171c8f" style="fill: var(--color2, #171c8f)" d="M14.432 25.312l-0.832 4.117c-0.011 0.053-0.043 0.075-0.107 0.064l-0.427-0.085c-0.053-0.011-0.075-0.053-0.064-0.107l0.832-4.117c0.011-0.053 0.043-0.085 0.107-0.064l0.427 0.085c0.043 0.011 0.075 0.053 0.064 0.107z"></path>
<path fill="#171c8f" style="fill: var(--color2, #171c8f)" d="M13.184 25.035l-1.579 3.893c-0.021 0.053-0.064 0.075-0.117 0.053l-0.693-0.277c-0.459-0.181-0.64-0.651-0.427-1.173l0.288-0.715c0.117-0.288 0.288-0.459 0.501-0.555 0.032-0.021 0.064-0.043 0.075-0.085l0.405-1.717c0.021-0.096 0.064-0.107 0.107-0.085l0.395 0.16c0.053 0.021 0.075 0.053 0.053 0.139l-0.384 1.515c-0.011 0.053 0 0.096 0.053 0.117l0.043 0.021c0.053 0.021 0.096 0 0.117-0.053l0.587-1.461c0.021-0.053 0.064-0.075 0.117-0.053l0.405 0.16c0.053 0.021 0.064 0.075 0.053 0.117zM11.563 26.805c-0.149-0.064-0.256 0.053-0.384 0.363l-0.192 0.459c-0.128 0.309-0.117 0.469 0.021 0.533l0.128 0.053c0.053 0.021 0.096 0 0.117-0.053l0.48-1.195c0.021-0.053 0-0.096-0.053-0.117l-0.117-0.043z"></path>
<path fill="#171c8f" style="fill: var(--color2, #171c8f)" d="M8.853 27.627c-0.032 0.043-0.075 0.053-0.117 0.021l-0.875-0.597c-0.043-0.032-0.053-0.075-0.021-0.117l0.213-0.309c0.032-0.043 0.075-0.053 0.117-0.021l0.363 0.245c0.043 0.032 0.096 0.021 0.117-0.021l0.651-0.971c0.032-0.043 0.021-0.096-0.021-0.117l-0.363-0.245c-0.043-0.032-0.053-0.075-0.021-0.117l0.213-0.309c0.032-0.043 0.075-0.053 0.117-0.021l0.363 0.245c0.043 0.032 0.096 0.021 0.117-0.021l0.683-1.003c0.032-0.043 0.021-0.096-0.021-0.117l-0.363-0.245c-0.043-0.032-0.053-0.075-0.021-0.117l0.213-0.309c0.032-0.043 0.075-0.053 0.117-0.021l0.875 0.597c0.043 0.032 0.053 0.075 0.021 0.117l-2.357 3.456z"></path>
<path fill="#171c8f" style="fill: var(--color2, #171c8f)" d="M7.339 25.493c-0.405 0.395-0.885 0.416-1.248 0.043s-0.32-0.853 0.085-1.248l0.341-0.331c0.043-0.032 0.085-0.032 0.128 0l0.299 0.32c0.032 0.043 0.032 0.085 0 0.128l-0.245 0.235c-0.245 0.235-0.32 0.363-0.192 0.501s0.256 0.053 0.501-0.181l1.653-1.6c0.245-0.235 0.32-0.363 0.192-0.501-0.128-0.128-0.256-0.053-0.501 0.181l-0.245 0.235c-0.043 0.032-0.085 0.032-0.128 0l-0.299-0.32c-0.032-0.043-0.032-0.085 0-0.128l0.341-0.331c0.405-0.395 0.885-0.416 1.248-0.043s0.32 0.853-0.085 1.248l-1.845 1.792z"></path>
<path fill="#171c8f" style="fill: var(--color2, #171c8f)" d="M4.864 23.893c-0.043 0.032-0.096 0.021-0.117-0.032l-0.683-1.077c-0.032-0.043-0.021-0.085 0.032-0.117l0.341-0.213c0.043-0.032 0.096-0.021 0.117 0.032l0.139 0.213c0.032 0.043 0.075 0.053 0.117 0.032l3.061-1.931c0.043-0.032 0.085-0.021 0.117 0.032l0.235 0.373c0.032 0.043 0.021 0.096-0.032 0.117l-3.061 1.931c-0.043 0.032-0.053 0.075-0.032 0.117l0.128 0.203c0.032 0.043 0.021 0.085-0.032 0.117l-0.331 0.203z"></path>
<path fill="#171c8f" style="fill: var(--color2, #171c8f)" d="M4.277 21.259c-0.533 0.192-0.981 0.032-1.163-0.459s0.053-0.907 0.576-1.109l2.421-0.896c0.533-0.192 0.981-0.032 1.163 0.459s-0.053 0.907-0.576 1.109l-2.421 0.896zM6.731 19.456c-0.064-0.171-0.213-0.16-0.533-0.043l-2.155 0.8c-0.32 0.117-0.437 0.203-0.373 0.373s0.213 0.16 0.533 0.043l2.155-0.8c0.309-0.107 0.437-0.192 0.373-0.373z"></path>
<path fill="#171c8f" style="fill: var(--color2, #171c8f)" d="M6.752 17.963l-4.171 0.533c-0.053 0.011-0.085-0.021-0.096-0.075l-0.096-0.736c-0.064-0.491 0.256-0.875 0.811-0.949l0.768-0.096c0.309-0.043 0.544 0.021 0.725 0.171 0.032 0.021 0.064 0.032 0.117 0.021l1.696-0.491c0.096-0.021 0.128 0 0.128 0.053l0.053 0.427c0.011 0.053-0.011 0.096-0.096 0.117l-1.515 0.405c-0.053 0.011-0.085 0.043-0.075 0.096l0.011 0.043c0.011 0.053 0.043 0.085 0.096 0.075l1.568-0.203c0.053-0.011 0.085 0.021 0.096 0.075l0.053 0.437c0.011 0.053-0.021 0.096-0.075 0.096zM4.416 17.429c-0.021-0.16-0.171-0.203-0.512-0.16l-0.491 0.064c-0.331 0.043-0.469 0.128-0.448 0.277l0.021 0.128c0.011 0.053 0.043 0.085 0.096 0.075l1.269-0.16c0.053-0.011 0.085-0.043 0.075-0.096l-0.011-0.128z"></path>
<path fill="#171c8f" style="fill: var(--color2, #171c8f)" d="M6.592 15.499l-1.472-0.128c-0.021 0-0.053 0-0.075 0l-2.677 0.288c-0.053 0.011-0.085-0.021-0.085-0.075l0.043-0.469c0-0.043 0.043-0.075 0.096-0.075l1.579-0.064c0.032 0 0.032-0.053 0-0.053l-1.547-0.331c-0.053-0.011-0.085-0.053-0.085-0.085l0.043-0.469c0-0.043 0.043-0.075 0.096-0.053l2.592 0.747c0.021 0.011 0.053 0.011 0.075 0.011l1.472 0.128c0.053 0 0.085 0.043 0.075 0.096l-0.043 0.459c0 0.053-0.043 0.085-0.085 0.075z"></path>
<path fill="#171c8f" style="fill: var(--color2, #171c8f)" d="M3.829 9.835c-0.043-0.021-0.064-0.075-0.032-0.117l0.373-0.64c0.267-0.448 0.736-0.533 1.227-0.256l2.176 1.269c0.491 0.288 0.64 0.736 0.384 1.184l-0.373 0.64c-0.021 0.043-0.075 0.053-0.117 0.032l-3.637-2.112zM7.381 11.104l0.075-0.117c0.096-0.16-0.011-0.267-0.309-0.437l-1.941-1.131c-0.288-0.171-0.437-0.213-0.533-0.053l-0.064 0.128c-0.021 0.043-0.011 0.085 0.032 0.117l2.624 1.525c0.043 0.021 0.085 0.021 0.117-0.032z"></path>
<path fill="#171c8f" style="fill: var(--color2, #171c8f)" d="M8.693 10.059l-3.168-2.763c-0.043-0.032-0.043-0.075-0.011-0.128l0.288-0.331c0.032-0.043 0.085-0.043 0.128-0.011l3.168 2.763c0.043 0.032 0.043 0.075 0.011 0.128l-0.288 0.331c-0.032 0.032-0.085 0.043-0.128 0.011z"></path>
<path fill="#171c8f" style="fill: var(--color2, #171c8f)" d="M9.547 9.099l-2.613-3.285c-0.032-0.043-0.032-0.085 0.011-0.128l0.587-0.469c0.384-0.309 0.875-0.235 1.227 0.203l0.48 0.608c0.192 0.245 0.256 0.469 0.235 0.704 0 0.032 0 0.075 0.043 0.107l1.291 1.195c0.064 0.064 0.064 0.107 0.021 0.139l-0.331 0.267c-0.043 0.032-0.085 0.043-0.149-0.021l-1.12-1.067c-0.032-0.043-0.085-0.043-0.128-0.011l-0.032 0.021c-0.043 0.032-0.043 0.085-0.011 0.128l0.971 1.227c0.032 0.043 0.032 0.085-0.011 0.128l-0.341 0.277c-0.043 0.021-0.085 0.021-0.128-0.021zM8.811 6.827c0.128-0.096 0.085-0.256-0.128-0.512l-0.309-0.384c-0.213-0.267-0.352-0.341-0.48-0.245l-0.107 0.085c-0.043 0.032-0.043 0.085-0.011 0.128l0.8 1.003c0.032 0.043 0.085 0.043 0.128 0.011l0.107-0.085z"></path>
<path fill="#171c8f" style="fill: var(--color2, #171c8f)" d="M9.419 4.064c-0.021-0.043-0.011-0.096 0.043-0.117l0.949-0.469c0.043-0.021 0.096-0.011 0.117 0.043l0.171 0.331c0.021 0.043 0.011 0.096-0.043 0.117l-0.405 0.192c-0.043 0.021-0.064 0.075-0.043 0.117l0.523 1.045c0.021 0.043 0.075 0.064 0.117 0.043l0.395-0.192c0.043-0.021 0.096-0.011 0.117 0.043l0.171 0.331c0.021 0.043 0.011 0.096-0.043 0.117l-0.395 0.192c-0.043 0.021-0.064 0.075-0.043 0.117l0.544 1.088c0.021 0.043 0.075 0.064 0.117 0.043l0.395-0.192c0.043-0.021 0.096-0.011 0.117 0.043l0.171 0.331c0.021 0.043 0.011 0.096-0.043 0.117l-0.949 0.469c-0.043 0.021-0.096 0.011-0.117-0.043l-1.867-3.765z"></path>
<path fill="#171c8f" style="fill: var(--color2, #171c8f)" d="M12.032 3.797c-0.139-0.544 0.075-0.981 0.576-1.109s0.896 0.139 1.035 0.693l0.117 0.459c0.011 0.053-0.011 0.096-0.064 0.107l-0.427 0.107c-0.053 0.011-0.096-0.011-0.107-0.064l-0.085-0.331c-0.085-0.331-0.16-0.459-0.331-0.416-0.181 0.043-0.181 0.192-0.096 0.523l0.565 2.229c0.085 0.331 0.149 0.459 0.331 0.416 0.171-0.043 0.181-0.192 0.096-0.523l-0.085-0.331c-0.011-0.053 0.011-0.096 0.064-0.107l0.427-0.107c0.053-0.011 0.096 0.011 0.107 0.064l0.117 0.459c0.139 0.544-0.075 0.981-0.576 1.109s-0.896-0.139-1.035-0.693l-0.629-2.485z"></path>
<path fill="#171c8f" style="fill: var(--color2, #171c8f)" d="M14.645 2.432c0-0.053 0.032-0.085 0.085-0.096l1.28-0.064c0.053 0 0.085 0.021 0.096 0.085l0.021 0.405c0 0.053-0.032 0.085-0.085 0.096l-0.256 0.011c-0.053 0-0.085 0.043-0.085 0.096l0.171 3.616c0 0.053-0.021 0.085-0.085 0.096l-0.437 0.021c-0.053 0-0.085-0.032-0.096-0.085l-0.171-3.616c0-0.053-0.043-0.085-0.096-0.085l-0.235 0.011c-0.053 0-0.085-0.021-0.096-0.085l-0.011-0.405z"></path>
<path fill="#171c8f" style="fill: var(--color2, #171c8f)" d="M17.205 3.221c0.085-0.555 0.459-0.864 0.971-0.789 0.512 0.085 0.768 0.491 0.683 1.045l-0.405 2.56c-0.085 0.555-0.459 0.864-0.971 0.789-0.512-0.085-0.768-0.491-0.683-1.045l0.405-2.56zM17.568 6.24c0.181 0.032 0.245-0.107 0.299-0.448l0.363-2.272c0.053-0.331 0.043-0.48-0.139-0.512s-0.245 0.107-0.299 0.448l-0.363 2.272c-0.053 0.331-0.043 0.48 0.139 0.512z"></path>
<path fill="#171c8f" style="fill: var(--color2, #171c8f)" d="M18.869 6.997l1.589-3.893c0.021-0.053 0.064-0.075 0.117-0.043l0.693 0.288c0.459 0.181 0.64 0.651 0.416 1.173l-0.288 0.715c-0.117 0.288-0.288 0.459-0.501 0.555-0.032 0.021-0.064 0.043-0.075 0.085l-0.416 1.717c-0.021 0.096-0.064 0.107-0.107 0.085l-0.395-0.16c-0.053-0.021-0.075-0.053-0.053-0.139l0.395-1.515c0.011-0.053 0-0.096-0.043-0.117l-0.043-0.021c-0.053-0.021-0.096 0-0.117 0.043l-0.597 1.461c-0.021 0.053-0.064 0.075-0.117 0.043l-0.405-0.171c-0.053-0.011-0.075-0.064-0.053-0.107zM20.491 5.237c0.149 0.064 0.256-0.053 0.384-0.363l0.181-0.459c0.128-0.309 0.128-0.469-0.021-0.533l-0.128-0.053c-0.053-0.021-0.096 0-0.117 0.043l-0.491 1.184c-0.021 0.053 0 0.096 0.043 0.117l0.149 0.064z"></path>
<path fill="#171c8f" style="fill: var(--color2, #171c8f)" d="M21.088 8.064l0.843-1.216c0.011-0.021 0.032-0.043 0.043-0.064l1.067-2.475c0.021-0.053 0.064-0.064 0.107-0.032l0.384 0.267c0.032 0.021 0.043 0.075 0.021 0.117l-0.725 1.397c-0.011 0.032 0.032 0.053 0.053 0.032l1.056-1.173c0.032-0.043 0.085-0.053 0.117-0.021l0.384 0.267c0.043 0.021 0.043 0.075 0 0.107l-1.931 1.877c-0.021 0.011-0.032 0.043-0.053 0.064l-0.843 1.216c-0.032 0.043-0.075 0.053-0.117 0.021l-0.384-0.267c-0.043-0.021-0.053-0.075-0.021-0.117z"></path>
<path fill="#171c8f" style="fill: var(--color2, #171c8f)" d="M27.381 8.459c0.043-0.021 0.085-0.021 0.117 0.032l0.373 0.651c0.267 0.448 0.107 0.907-0.384 1.184l-2.176 1.269c-0.491 0.288-0.96 0.192-1.227-0.256l-0.373-0.651c-0.021-0.043-0.011-0.096 0.032-0.117l3.637-2.112zM24.523 10.923l0.075 0.117c0.096 0.16 0.235 0.117 0.533-0.053l1.941-1.131c0.288-0.171 0.405-0.277 0.309-0.437l-0.075-0.117c-0.021-0.043-0.075-0.053-0.117-0.021l-2.624 1.525c-0.053 0.032-0.064 0.075-0.043 0.117z"></path>
<path fill="#171c8f" style="fill: var(--color2, #171c8f)" d="M24.8 12.587l3.968-1.397c0.053-0.021 0.096 0 0.107 0.053l0.149 0.416c0.021 0.053 0 0.096-0.053 0.107l-3.968 1.397c-0.053 0.021-0.096 0-0.107-0.053l-0.149-0.416c-0.021-0.043 0-0.085 0.053-0.107z"></path>
<path fill="#171c8f" style="fill: var(--color2, #171c8f)" d="M25.195 13.792l4.149-0.651c0.053-0.011 0.096 0.011 0.096 0.075l0.117 0.736c0.075 0.48-0.224 0.885-0.789 0.971l-0.757 0.117c-0.309 0.043-0.544-0.011-0.736-0.149-0.032-0.021-0.064-0.032-0.117-0.021l-1.685 0.533c-0.085 0.021-0.128 0-0.128-0.053l-0.064-0.416c-0.011-0.053 0.011-0.096 0.096-0.117l1.504-0.448c0.053-0.011 0.085-0.053 0.075-0.096l-0.011-0.043c-0.011-0.053-0.053-0.085-0.096-0.075l-1.557 0.245c-0.053 0.011-0.096-0.011-0.096-0.075l-0.064-0.437c-0.011-0.043 0.021-0.085 0.064-0.096zM27.552 14.272c0.021 0.16 0.181 0.192 0.512 0.149l0.48-0.075c0.331-0.053 0.469-0.139 0.448-0.299l-0.021-0.128c-0.011-0.053-0.053-0.085-0.096-0.075l-1.269 0.203c-0.053 0.011-0.085 0.053-0.075 0.096l0.021 0.128z"></path>
<path fill="#171c8f" style="fill: var(--color2, #171c8f)" d="M29.643 16.171c0.053 0 0.085 0.032 0.085 0.096l-0.053 1.056c0 0.053-0.043 0.085-0.096 0.085l-0.373-0.021c-0.053 0-0.085-0.043-0.085-0.096l0.021-0.448c0-0.053-0.032-0.085-0.085-0.096l-1.163-0.064c-0.053 0-0.085 0.032-0.096 0.085l-0.021 0.448c0 0.053-0.043 0.085-0.096 0.085l-0.373-0.021c-0.053 0-0.085-0.043-0.085-0.096l0.021-0.448c0-0.053-0.032-0.085-0.085-0.096l-1.216-0.064c-0.053 0-0.085 0.032-0.096 0.085l-0.021 0.448c0 0.053-0.043 0.085-0.096 0.085l-0.341-0.021c-0.053 0-0.085-0.043-0.085-0.096l0.053-1.056c0-0.053 0.043-0.085 0.096-0.085l4.192 0.235z"></path>
<path fill="#171c8f" style="fill: var(--color2, #171c8f)" d="M28.587 18.581c0.544 0.149 0.811 0.544 0.683 1.045-0.139 0.501-0.565 0.715-1.109 0.565l-0.459-0.128c-0.053-0.011-0.075-0.053-0.064-0.107l0.117-0.427c0.011-0.053 0.053-0.075 0.107-0.064l0.331 0.085c0.331 0.085 0.48 0.085 0.523-0.085 0.053-0.181-0.085-0.256-0.405-0.341l-2.219-0.597c-0.331-0.085-0.48-0.096-0.523 0.085-0.043 0.171 0.085 0.256 0.405 0.341l0.331 0.085c0.053 0.011 0.075 0.053 0.064 0.107l-0.117 0.427c-0.011 0.053-0.053 0.075-0.107 0.064l-0.459-0.128c-0.544-0.149-0.811-0.544-0.683-1.045 0.139-0.501 0.565-0.715 1.109-0.565l2.475 0.683z"></path>
<path fill="#171c8f" style="fill: var(--color2, #171c8f)" d="M28.491 21.525c0.043 0.021 0.064 0.075 0.043 0.117l-0.576 1.141c-0.021 0.043-0.064 0.064-0.117 0.043l-0.363-0.181c-0.043-0.021-0.064-0.075-0.043-0.117l0.117-0.224c0.021-0.043 0.011-0.096-0.043-0.117l-3.232-1.643c-0.043-0.021-0.064-0.064-0.043-0.117l0.203-0.395c0.021-0.043 0.075-0.064 0.117-0.043l3.232 1.643c0.043 0.021 0.096 0.011 0.117-0.043l0.107-0.213c0.021-0.043 0.064-0.064 0.117-0.043l0.363 0.192z"></path>
<path fill="#171c8f" style="fill: var(--color2, #171c8f)" d="M26.528 23.371c0.437 0.352 0.523 0.821 0.203 1.227s-0.8 0.427-1.248 0.075l-2.016-1.611c-0.437-0.352-0.523-0.821-0.203-1.227s0.8-0.427 1.248-0.075l2.016 1.611zM23.723 22.197c-0.117 0.149-0.021 0.267 0.235 0.48l1.792 1.44c0.267 0.213 0.395 0.277 0.512 0.128s0.021-0.267-0.235-0.48l-1.792-1.44c-0.256-0.213-0.395-0.277-0.512-0.128z"></path>
<path fill="#171c8f" style="fill: var(--color2, #171c8f)" d="M22.443 22.944l2.603 3.296c0.032 0.043 0.032 0.085-0.011 0.128l-0.587 0.459c-0.384 0.299-0.875 0.235-1.227-0.213l-0.48-0.608c-0.192-0.245-0.256-0.469-0.235-0.704 0-0.032 0-0.075-0.043-0.107l-1.291-1.205c-0.064-0.064-0.064-0.107-0.021-0.139l0.331-0.267c0.043-0.032 0.085-0.043 0.149 0.021l1.131 1.088c0.032 0.043 0.085 0.043 0.128 0.011l0.032-0.032c0.043-0.032 0.043-0.085 0.011-0.128l-0.981-1.237c-0.032-0.043-0.032-0.085 0.011-0.128l0.341-0.267c0.053-0.021 0.107-0.011 0.139 0.032zM23.179 25.227c-0.128 0.096-0.085 0.256 0.128 0.523l0.299 0.384c0.213 0.267 0.352 0.341 0.469 0.245l0.107-0.085c0.043-0.032 0.043-0.085 0.011-0.128l-0.8-1.003c-0.032-0.043-0.085-0.043-0.128-0.011l-0.085 0.075z"></path>
<path fill="#171c8f" style="fill: var(--color2, #171c8f)" d="M20.416 24.352l0.651 1.333c0.011 0.021 0.021 0.043 0.043 0.064l1.621 2.155c0.032 0.043 0.021 0.085-0.021 0.107l-0.416 0.203c-0.032 0.021-0.085 0-0.107-0.043l-0.864-1.323c-0.021-0.021-0.064 0-0.053 0.021l0.501 1.493c0.021 0.053 0 0.096-0.032 0.117l-0.416 0.203c-0.043 0.021-0.085 0-0.096-0.053l-0.683-2.603c0-0.021-0.021-0.053-0.032-0.075l-0.651-1.333c-0.021-0.043-0.011-0.096 0.043-0.117l0.416-0.203c0.021-0.011 0.064 0.011 0.096 0.053z"></path>
<path fill="#171c8f" style="fill: var(--color2, #171c8f)" d="M16.96 14.091l-0.469 0.437 1.344 1.376h-4.864v0.64h4.864l-1.344 1.387 0.469 0.437 2.069-2.144-2.069-2.133z"></path>
</symbol>
<symbol id="icon-leaves1" viewBox="0 0 48 32">
<path fill="#e06ba9" style="fill: var(--color3, #e06ba9)" d="M6.096 5.137c-2.228 1.938-3.963 4.256-5.31 6.866-1.425 2.774-0.872 6.418 1.261 8.607 2.236 2.292 4.956 2.636 8.186 1.154 3.255-1.491 5.777-3.929 8.333-6.324 0.57-0.534 1.019-1.258 1.865-1.534 0.061 0.241 0.129 0.362 0.104 0.457-0.138 0.517-0.302 1.025-0.449 1.534-1.002 3.541-1.287 7.099-0.363 10.718 1.399 5.445 7.366 7.168 11.424 3.265 1.986-1.904 2.849-4.334 3.238-6.97 0.164-1.129 0.19-2.283 0.294-3.584 0.734 0.612 0.829 1.284 1.071 1.869 0.95 2.266 2.141 4.359 3.946 6.074 1.356 1.284 2.996 1.964 4.784 2.206 1.572 0.215 2.884-0.267 3.782-1.223v-33.247h-28.409c-0.751 0.603-1.502 1.189-2.262 1.714-3.894 2.705-7.892 5.298-11.493 8.417z"></path>
</symbol>
<symbol id="icon-leaves2" viewBox="0 0 44 32">
<path fill="#f5333f" style="fill: var(--color4, #f5333f)" d="M43.983 9.709c-0.008-0.014-0.013-0.032-0.021-0.047-0.718-1.633-3.055-2.395-6.41-2.089-3.118 0.284-6.224 1.435-7.103 1.784-0.279 0.111-0.562 0.223-0.849 0.334-1.445 0.572-2.937 1.165-4.128 1.532-1.741 0.536-2.024 0.327-2.049 0.302-0.038-0.036-0.068-0.079-0.089-0.133-0.347-0.788 0.972-2.895 2.447-4.474 1.297-1.392 2.438-3.438 1.749-5.002-0.22-0.496-0.608-0.921-1.154-1.255-1.276-0.777-2.59-0.87-3.921-0.273-1.153 0.518-2.125 1.471-2.848 2.244-1.648 1.769-3.431 4.427-4.64 6.347-0.363 0.575-0.685 1.144-0.963 1.643-0.321 0.568-0.6 1.061-0.854 1.417-0.296 0.417-0.444 0.478-0.473 0.489-0.051-0.022-0.097-0.076-0.135-0.158-0.177-0.406-0.076-1.248 0.021-2.061 0.085-0.69 0.169-1.406 0.106-1.974-0.097-0.827-0.258-1.899-0.672-2.837-0.444-1.014-1.099-1.661-1.944-1.931-2.032-0.644-4.035 1.172-4.606 2.244-0.579 1.082-0.748 3.87-0.325 5.326 0.723 2.496 0.562 3.373 0.3 3.668-0.473 0.536-1.699 0.554-3.651 0.061-0.558-0.14-1.162-0.324-1.77-0.521v5.135c0.963 0.252 1.906 0.399 2.742 0.532 1.487 0.234 2.666 0.421 3.182 1.021 0.199 0.23 0.41 0.601 0.63 1.104 0.194 0.446 0.385 0.964 0.566 1.514 0.258 0.773 0.499 1.608 0.723 2.381 0.156 0.539 0.304 1.050 0.448 1.507 0.051 0.165 0.118 0.338 0.194 0.518 0.71 1.615 2.392 3.528 4.111 3.884 0.735 0.155 1.424 0.004 1.99-0.428 1.082-0.827 1.377-1.751 0.908-2.82-0.258-0.583-0.71-1.154-1.149-1.708-0.106-0.137-0.216-0.273-0.321-0.41-0.101-0.133-0.207-0.266-0.308-0.399-0.537-0.691-1.094-1.403-1.339-1.96-0.123-0.273-0.139-0.45-0.114-0.565 0.038-0.158 0.169-0.205 0.266-0.237 0.080-0.029 0.334-0.054 0.968 0.237 0.418 0.194 1.006 0.525 1.825 1.090 1.331 0.921 2.784 2.115 3.845 2.985 0.173 0.144 0.338 0.277 0.486 0.399 1.644 1.341 4.082 2.935 6.347 2.891 0.984-0.018 1.842-0.349 2.548-0.978 0.816-0.73 1.040-1.536 0.659-2.402-0.663-1.511-3.085-2.848-4.69-3.733-0.156-0.086-0.308-0.169-0.448-0.248-0.004-0.004-0.008-0.004-0.013-0.007-0.161-0.090-0.325-0.183-0.499-0.277-1.584-0.881-3.752-2.086-4.073-2.816-0.063-0.14-0.013-0.183 0.021-0.216 0.047-0.043 0.545-0.385 3.494 0.37 1.597 0.41 3.613 1.068 5.388 1.762 1.175 0.457 2.239 0.849 3.211 1.176 2.417 0.816 4.238 1.241 5.603 1.313 0.942 0.050 2.903-0.244 4.158-1.244 0.030-0.021 0.055-0.047 0.080-0.068 0.663-0.561 1.001-1.237 1.006-2.017 0-0.5-0.089-0.96-0.27-1.374-0.625-1.42-2.328-2.276-4.935-2.478-0.997-0.076-1.999-0.061-2.966-0.043-0.896 0.014-1.741 0.029-2.501-0.032-1.28-0.104-2.738-0.313-3.9-0.557-1.449-0.309-1.91-0.554-2.041-0.647 0.089-0.079 0.347-0.223 1.116-0.371 0.794-0.151 1.884-0.266 3.152-0.396 2.138-0.223 4.804-0.5 7.369-1.104 3.465-0.82 5.603-1.859 6.359-3.093 0.372-0.586 0.418-1.198 0.156-1.827z"></path>
</symbol>
<symbol id="icon-leaves3" viewBox="0 0 40 32">
<path fill="#7ba3d6" style="fill: var(--color5, #7ba3d6)" d="M36.020 0c0.865 0.147 0.928 0.721 1.089 1.161 2.555 7.017 4.634 14.174 5.249 21.631 1.019 12.278-11.698 21.051-21.392 18.204-6.33-1.861-10.637-6.408-13.966-11.914-3.183-5.289-4.446-11.34-6.512-17.070-0.188-0.525-0.565-1.161-0.042-1.644 0.53-0.483 1.131-0.035 1.605 0.231 3.183 1.819 6.358 3.659 9.513 5.527 1.954 1.154 2.247 1.084 2.903-1.119 0.97-3.288 1.905-6.59 2.841-9.885 0.44-1.546 0.998-1.868 2.324-0.602 2.659 2.533 5.479 4.897 8.236 7.325 2.352 2.071 2.547 1.966 3.643-0.881 1.424-3.708 3.015-7.346 4.509-10.963z"></path>
</symbol>
<symbol id="icon-leaves4" viewBox="0 0 22 32">
<path fill="#7ba3d6" style="fill: var(--color5, #7ba3d6)" d="M12.683 0.030c1.038-0.115 2.108 0.136 3.182 0.323 0.507 0.088 0.769 0.266 0.407 0.812-2.024 3.040-4.473 5.591-7.99 6.874-2.54 0.927-5.125 0.975-7.728 0.229-0.555-0.163-0.703-0.392-0.404-0.936 2.102-3.816 5.215-6.237 9.537-7.046 0.974-0.181 1.939-0.314 2.995-0.257z"></path>
<path fill="#ee3441" style="fill: var(--color6, #ee3441)" d="M3.113 11.004c-1.55 0.453-2.096 2.005-1.752 3.378 0.229 0.912 1.475 1.992 2.911 1.588 1.493-0.42 2.443-1.866 2.042-3.152-0.404-1.286-1.909-2.192-3.2-1.814z"></path>
<path fill="#f5c2cb" style="fill: var(--color7, #f5c2cb)" d="M21.696 30.539c-0.069 0.078-0.148 0.16-0.235 0.238-0.778 0.728-2.093 1.389-2.998 1.183-0.389-0.088-0.67-0.332-0.817-0.703-0.281-0.709-0.166-1.289 0.35-1.769 0.281-0.263 0.651-0.471 1.007-0.673 0.087-0.051 0.175-0.1 0.262-0.151 0.084-0.048 0.169-0.1 0.256-0.148 0.443-0.254 0.902-0.519 1.167-0.767 0.314-0.293 0.211-0.411 0.151-0.48-0.051-0.057-0.32-0.223-1.677 0.079-0.878 0.196-1.888 0.513-2.627 0.749-0.121 0.039-0.235 0.072-0.338 0.106-1.143 0.356-2.724 0.664-3.776 0.109-0.459-0.241-0.769-0.625-0.926-1.135-0.184-0.595-0.063-1.093 0.35-1.479 0.727-0.679 2.232-0.851 3.23-0.963 0.097-0.012 0.19-0.021 0.277-0.033 0.103-0.012 0.208-0.024 0.317-0.036 0.986-0.115 2.338-0.275 2.687-0.601 0.069-0.063 0.057-0.1 0.048-0.124-0.012-0.033-0.151-0.341-1.743-0.616-0.863-0.148-1.991-0.257-3.016-0.29-2.365-0.078-3.897-0.296-4.823-0.688-0.455-0.193-1.297-0.815-1.611-1.663-0.181-0.486-0.16-0.96 0.063-1.407 0.136-0.278 0.305-0.51 0.504-0.694 0.685-0.637 1.722-0.712 2.998-0.214 0.489 0.19 0.956 0.435 1.406 0.67 0.416 0.217 0.808 0.423 1.185 0.568 0.63 0.241 1.372 0.468 1.988 0.607 0.766 0.169 1.050 0.142 1.137 0.121-0.018-0.063-0.103-0.205-0.422-0.468-0.332-0.269-0.814-0.589-1.372-0.957-0.944-0.625-2.117-1.401-3.158-2.34-1.403-1.265-2.12-2.34-2.136-3.197-0.006-0.405 0.139-0.755 0.437-1.041 0.009-0.006 0.015-0.015 0.024-0.021 0.787-0.734 2.093-0.607 3.583 0.347 1.384 0.888 2.528 2.252 2.844 2.648 0.1 0.127 0.202 0.254 0.305 0.383 0.522 0.655 1.059 1.331 1.517 1.814 0.67 0.703 0.86 0.655 0.881 0.649 0.027-0.012 0.054-0.027 0.078-0.051 0.38-0.353 0.341-1.826 0.084-3.046-0.226-1.072-0.199-2.469 0.555-3.173 0.238-0.223 0.537-0.365 0.887-0.423 0.736-0.121 1.336 0.085 1.786 0.604v17.672c-0.021 0.024-0.042 0.051-0.063 0.076-0.223 0.266-0.434 0.513-0.627 0.731z"></path>
</symbol>
<symbol id="icon-line" viewBox="0 0 44 32">
<path fill="#2d3185" style="fill: var(--color8, #2d3185)" d="M22.222 0c-12.227 0-22.222 9.956-22.222 22.133v9.867h44.444v-9.867c0-12.178-9.951-22.133-22.222-22.133zM0.848 31.156v-9.022c0-11.733 9.594-21.289 21.374-21.289s21.374 9.556 21.374 21.289v8.978h-42.749v0.044z"></path>
<path fill="#2d3185" style="fill: var(--color8, #2d3185)" d="M36.858 23.2h-11.245l10.977-2.933c0.223-0.044 0.357-0.311 0.312-0.533s-0.312-0.356-0.535-0.311l-10.933 2.978 9.906-5.689c0.223-0.133 0.268-0.356 0.134-0.578s-0.357-0.267-0.58-0.133l-9.951 5.689 8.166-8.133c0.089-0.089 0.134-0.178 0.134-0.311s-0.045-0.222-0.134-0.311c-0.089-0.089-0.178-0.133-0.312-0.133s-0.223 0.044-0.312 0.133l-8.077 8.089 5.801-10c0.134-0.222 0.045-0.444-0.134-0.578-0.089-0.044-0.223-0.089-0.312-0.044s-0.178 0.089-0.268 0.178l-5.89 10.178 3.079-11.378c0.045-0.222-0.089-0.444-0.312-0.533-0.223-0.044-0.446 0.089-0.535 0.311l-2.99 11.111v-11.556c0-0.222-0.178-0.4-0.402-0.4s-0.402 0.178-0.402 0.4v11.556l-3.034-11.2c-0.045-0.089-0.089-0.222-0.178-0.267s-0.223-0.089-0.312-0.044c-0.223 0.044-0.357 0.311-0.312 0.533l3.079 11.467-6.024-10.311c-0.134-0.222-0.357-0.267-0.58-0.133-0.089 0.044-0.178 0.133-0.178 0.267-0.045 0.089 0 0.222 0.045 0.311l5.89 10.178-8.3-8.311c-0.089-0.089-0.178-0.133-0.312-0.133s-0.223 0.044-0.312 0.133c-0.089 0.089-0.134 0.178-0.134 0.311s0.045 0.222 0.134 0.311l8.344 8.311-10.174-5.867c-0.089-0.044-0.223-0.089-0.312-0.044s-0.178 0.089-0.268 0.178c-0.134 0.222-0.045 0.444 0.134 0.578l10.174 5.867-11.29-3.022c-0.089-0.044-0.223 0-0.312 0.044s-0.178 0.133-0.178 0.267c-0.045 0.089 0 0.222 0.045 0.311s0.134 0.178 0.268 0.178l11.245 3.022h-11.602c-0.223 0-0.402 0.178-0.402 0.4s0.178 0.4 0.402 0.4h29.273c0.223 0 0.402-0.178 0.402-0.4s-0.134-0.4-0.402-0.4z"></path>
</symbol>
<symbol id="icon-logo" viewBox="0 0 222 32">
<path fill="#fff" style="fill: var(--color9, #fff)" d="M7.691 1.6c-0.282-0.44-0.685-0.84-1.248-1.16-0.564-0.28-1.329-0.44-2.295-0.44-0.926 0-1.691 0.16-2.255 0.48-0.564 0.28-0.966 0.68-1.248 1.12s-0.483 0.92-0.564 1.44c-0.040 0.48-0.081 0.92-0.081 1.32v23.28c0 0.4 0.040 0.84 0.081 1.32 0.081 0.52 0.242 1 0.523 1.44s0.725 0.84 1.248 1.16c0.604 0.28 1.369 0.44 2.336 0.44s1.732-0.16 2.255-0.44c0.564-0.32 0.966-0.68 1.248-1.16 0.282-0.44 0.443-0.92 0.483-1.44 0.081-0.48 0.081-0.92 0.081-1.32v-11h-4.148v2.16h2.013v8.68c0 0.24 0 0.52-0.040 0.8 0 0.28-0.081 0.56-0.201 0.8s-0.282 0.44-0.564 0.6c-0.242 0.16-0.644 0.24-1.168 0.24s-0.886-0.080-1.168-0.24c-0.282-0.16-0.483-0.36-0.604-0.6s-0.201-0.52-0.201-0.8c0-0.28-0.040-0.56-0.040-0.8v-22.96c0-0.24 0-0.52 0.040-0.8 0-0.28 0.081-0.56 0.201-0.8s0.322-0.44 0.604-0.6c0.282-0.16 0.644-0.24 1.168-0.24 0.483 0 0.886 0.080 1.168 0.24 0.242 0.16 0.443 0.36 0.564 0.6s0.201 0.52 0.201 0.8c0 0.32 0.040 0.56 0.040 0.8v3.96h2.174v-4.12c0-0.4-0.040-0.84-0.081-1.32-0.081-0.52-0.282-1-0.523-1.44z"></path>
<path fill="#fff" style="fill: var(--color9, #fff)" d="M20.416 0.24h-2.98l-3.503 31.32-0.040 0.2h2.215l0.805-8.68h4.027l0.805 8.52v0.16h2.174l-3.503-31.36v-0.16zM18.926 3.72l1.772 17.28h-3.584l1.812-17.28z"></path>
<path fill="#fff" style="fill: var(--color9, #fff)" d="M36.926 17.4c0.403-0.32 0.725-0.76 0.926-1.28 0.242-0.56 0.362-1.24 0.362-2.040v-9.72c0-0.6-0.081-1.16-0.242-1.64-0.161-0.52-0.403-0.96-0.765-1.32s-0.805-0.64-1.329-0.84c-0.523-0.2-1.208-0.28-1.933-0.28h-4.027v31.48h2.175v-13.52h1.772c0.242 0 0.443 0 0.644-0.040 0.161 0 0.282-0.040 0.443-0.040l1.53 13.44 0.040 0.16h2.215l-1.731-14-0.081-0.36zM36.040 4.72v9.040c0 0.48-0.040 0.88-0.121 1.24-0.081 0.32-0.201 0.56-0.362 0.76s-0.403 0.32-0.685 0.4-0.644 0.12-1.087 0.12h-1.772v-14.040h1.933c0.765 0 1.329 0.2 1.611 0.56 0.322 0.36 0.483 1 0.483 1.92z"></path>
<path fill="#fff" style="fill: var(--color9, #fff)" d="M52.107 1.52c-0.322-0.4-0.805-0.72-1.369-0.96s-1.329-0.32-2.215-0.32h-3.866v31.48h3.866c0.886 0 1.651-0.12 2.215-0.32 0.604-0.2 1.047-0.52 1.369-0.92s0.564-0.88 0.685-1.44c0.121-0.56 0.161-1.16 0.161-1.84v-22.4c0-0.68-0.040-1.28-0.161-1.84-0.121-0.52-0.362-1.040-0.685-1.44zM46.791 2.24h1.651c0.403 0 0.765 0.040 1.087 0.080 0.282 0.040 0.523 0.16 0.685 0.36 0.201 0.16 0.322 0.44 0.403 0.76s0.121 0.8 0.121 1.36v22.4c0 0.56-0.040 1.040-0.161 1.36-0.081 0.32-0.242 0.6-0.403 0.76s-0.403 0.28-0.685 0.36-0.644 0.080-1.087 0.080h-1.651v-27.52h0.040z"></path>
<path fill="#fff" style="fill: var(--color9, #fff)" d="M59.758 31.76h7.168v-1.96h-4.993v-13.16h4.148v-2.040h-4.148v-12.32h4.993v-2.040h-7.168v31.52z"></path>
<path fill="#fff" style="fill: var(--color9, #fff)" d="M78.804 24.12l-3.544-23.72-0.040-0.16h-2.779v31.52h2.054l-0.081-25.72 3.544 25.56 0.040 0.16h2.779v-31.52h-2.013l0.040 23.88z"></path>
<path fill="#fff" style="fill: var(--color9, #fff)" d="M104.455 2.56c-0.080-0.32-0.241-0.64-0.403-0.96s-0.442-0.6-0.725-0.84c-0.322-0.24-0.684-0.44-1.128-0.56-0.442-0.16-1.006-0.2-1.61-0.2-0.967 0-1.732 0.16-2.255 0.44-0.564 0.32-0.967 0.68-1.288 1.16-0.282 0.44-0.443 0.92-0.523 1.44-0.081 0.48-0.121 0.92-0.121 1.32v23.28c0 0.4 0.040 0.84 0.121 1.32 0.080 0.52 0.241 1 0.523 1.44s0.725 0.84 1.248 1.16c0.564 0.32 1.329 0.48 2.296 0.48s1.732-0.16 2.255-0.48c0.564-0.32 0.967-0.68 1.248-1.16 0.282-0.44 0.443-0.92 0.484-1.44 0.080-0.48 0.080-0.92 0.080-1.32v-4.12h-2.174v3.96c0 0.24 0 0.52 0 0.8s-0.081 0.56-0.201 0.8c-0.12 0.24-0.282 0.44-0.564 0.6-0.242 0.16-0.645 0.24-1.128 0.24h-0.040c-0.523 0-0.886-0.080-1.168-0.24s-0.483-0.36-0.603-0.6c-0.121-0.24-0.201-0.52-0.201-0.8s-0.040-0.56-0.040-0.8v-22.96c0-0.24 0-0.52 0.040-0.8 0-0.28 0.080-0.56 0.201-0.8s0.322-0.44 0.603-0.6c0.282-0.16 0.645-0.24 1.168-0.24s0.886 0.080 1.168 0.24c0.242 0.16 0.443 0.36 0.564 0.6s0.201 0.52 0.201 0.8c0 0.32 0.040 0.6 0.040 0.8v3.96h2.174v-4.12c0-0.24 0-0.56-0.040-0.88-0.040-0.28-0.12-0.6-0.201-0.92z"></path>
<path fill="#fff" style="fill: var(--color9, #fff)" d="M111.944 0.24h-2.174v31.48h2.174v-31.48z"></path>
<path fill="#fff" style="fill: var(--color9, #fff)" d="M115.811 2.24h3.1v29.52h2.174v-29.52h3.061v-2h-8.335v2z"></path>
<path fill="#fff" style="fill: var(--color9, #fff)" d="M131.917 14.56l-2.215-14.16v-0.16h-2.255l3.383 18.32v13.2h2.175v-13.16l3.342-18.16 0.040-0.2h-2.255l-2.216 14.32z"></path>
<path fill="#fff" style="fill: var(--color9, #fff)" d="M157.327 2.56c-0.081-0.32-0.242-0.64-0.403-0.96s-0.443-0.6-0.725-0.84c-0.323-0.24-0.685-0.44-1.128-0.56-0.443-0.16-1.007-0.2-1.611-0.2-0.967 0-1.732 0.16-2.255 0.44-0.564 0.32-0.967 0.68-1.288 1.16-0.281 0.44-0.442 0.92-0.523 1.44-0.081 0.48-0.12 0.92-0.12 1.32v23.28c0 0.4 0.040 0.84 0.12 1.32 0.081 0.52 0.242 1 0.523 1.44s0.725 0.84 1.248 1.16c0.564 0.32 1.329 0.48 2.296 0.48s1.732-0.16 2.255-0.48c0.564-0.32 0.967-0.68 1.248-1.16 0.282-0.44 0.443-0.92 0.484-1.44 0.080-0.48 0.080-0.92 0.080-1.32v-4.12h-2.174v3.96c0 0.24 0 0.52 0 0.8s-0.080 0.56-0.201 0.8c-0.12 0.24-0.281 0.44-0.564 0.6-0.242 0.16-0.644 0.24-1.128 0.24h-0.040c-0.483 0-0.886-0.080-1.167-0.24s-0.484-0.36-0.604-0.6-0.201-0.52-0.201-0.8c0-0.32-0.040-0.56-0.040-0.8v-22.96c0-0.24 0-0.48 0.040-0.8 0-0.28 0.081-0.56 0.201-0.8s0.322-0.44 0.604-0.6c0.281-0.16 0.644-0.24 1.167-0.24s0.887 0.080 1.168 0.24c0.242 0.16 0.443 0.36 0.564 0.6s0.201 0.52 0.201 0.8c0 0.32 0.040 0.6 0.040 0.8v3.96h2.174v-4.12c0-0.24 0-0.56-0.040-0.88-0.080-0.28-0.12-0.6-0.2-0.92z"></path>
<path fill="#fff" style="fill: var(--color9, #fff)" d="M163.004 31.76h7.168v-1.96h-4.993v-13.16h4.147v-2.040h-4.147v-12.32h4.993v-2.040h-7.168v31.52z"></path>
<path fill="#fff" style="fill: var(--color9, #fff)" d="M181.648 25.56l-3.544-25.16-0.040-0.16h-2.739v31.52h2.014l-0.040-25.36 3.544 25.2v0.16h2.778v-31.52h-2.013l0.040 25.32z"></path>
<path fill="#fff" style="fill: var(--color9, #fff)" d="M188.293 2.24h3.061v29.52h2.174v-29.52h3.061v-2h-8.296v2z"></path>
<path fill="#fff" style="fill: var(--color9, #fff)" d="M201.299 31.76h7.168v-1.96h-5.033v-13.16h4.187v-2.040h-4.187v-12.32h5.033v-2.040h-7.168v31.52z"></path>
<path fill="#fff" style="fill: var(--color9, #fff)" d="M220.346 17.76l-0.081-0.36c0.403-0.32 0.725-0.76 0.926-1.28 0.242-0.56 0.362-1.24 0.362-2.040v-9.72c0-0.6-0.081-1.16-0.242-1.64-0.161-0.52-0.403-0.96-0.765-1.32s-0.805-0.64-1.328-0.84c-0.524-0.2-1.208-0.28-1.933-0.28h-4.027v31.48h2.175v-13.52h1.771c0.242 0 0.443 0 0.645-0.040 0.161 0 0.281-0.040 0.442-0.040l1.571 13.44 0.040 0.16h2.215l-1.771-14zM218.936 2.8c0.322 0.36 0.443 1.040 0.443 1.92v9.040c0 0.48-0.040 0.88-0.121 1.24-0.080 0.32-0.201 0.56-0.362 0.76s-0.403 0.32-0.684 0.4c-0.282 0.080-0.645 0.12-1.087 0.12h-1.772v-14.040h1.933c0.806 0 1.369 0.2 1.651 0.56z"></path>
</symbol>
<symbol id="icon-logo-footer" viewBox="0 0 23 32">
<path fill="#fff" style="fill: var(--color9, #fff)" d="M11.286 0c-6.221 0-11.286 5.056-11.286 11.267v20.745h22.561v-20.745c0-6.211-5.053-11.267-11.275-11.267zM0.416 31.584v-20.317c0-5.98 4.88-10.851 10.87-10.851s10.87 4.872 10.87 10.851v20.329l-21.74-0.012z"></path>
<path fill="#fff" style="fill: var(--color9, #fff)" d="M18.722 11.81h-5.77l5.609-1.501c0.116-0.035 0.173-0.139 0.15-0.254-0.035-0.115-0.139-0.173-0.254-0.15l-5.608 1.501 5.088-2.932c0.046-0.023 0.081-0.069 0.093-0.127s0.012-0.104-0.023-0.162c-0.035-0.058-0.069-0.081-0.127-0.092s-0.104-0.012-0.162 0.023l-5.1 2.944 4.186-4.179c0.035-0.035 0.058-0.092 0.058-0.15s-0.023-0.104-0.058-0.15c-0.035-0.035-0.093-0.058-0.15-0.058s-0.104 0.023-0.15 0.058l-4.163 4.156 2.972-5.137c0.058-0.104 0.023-0.231-0.081-0.289-0.046-0.023-0.104-0.035-0.162-0.023s-0.104 0.046-0.127 0.092l-3.018 5.206 1.573-5.853c0.035-0.115-0.035-0.219-0.15-0.254s-0.22 0.035-0.254 0.15l-1.538 5.714v-5.922c0-0.115-0.092-0.208-0.208-0.208s-0.208 0.092-0.208 0.208v5.934l-1.515-5.749c-0.012-0.058-0.046-0.104-0.092-0.127s-0.104-0.035-0.162-0.023c-0.116 0.035-0.173 0.139-0.15 0.254l1.584 5.899-3.053-5.299c-0.058-0.104-0.185-0.139-0.289-0.081-0.046 0.023-0.081 0.069-0.093 0.127s-0.012 0.104 0.023 0.162l3.007 5.218-4.256-4.248c-0.081-0.081-0.208-0.081-0.289 0-0.046 0.035-0.069 0.092-0.069 0.15s0.023 0.104 0.058 0.15l4.29 4.283-5.238-3.025c-0.104-0.058-0.231-0.023-0.289 0.081s-0.023 0.231 0.081 0.289l5.215 3.013-5.782-1.57c-0.058-0.012-0.104-0.012-0.162 0.023-0.046 0.023-0.081 0.069-0.093 0.127-0.035 0.115 0.035 0.219 0.15 0.254l5.794 1.547h-5.967c-0.116 0-0.208 0.092-0.208 0.208s0.093 0.208 0.208 0.208h14.871c0.116 0 0.208-0.092 0.208-0.208 0.012-0.115-0.081-0.208-0.197-0.208z"></path>
<path fill="#fff" style="fill: var(--color9, #fff)" d="M7.332 16.854c-0.023-0.104-0.058-0.219-0.116-0.323s-0.127-0.208-0.231-0.289c-0.104-0.081-0.231-0.15-0.382-0.196s-0.335-0.069-0.555-0.069c-0.22 0-0.405 0.023-0.555 0.069s-0.278 0.115-0.382 0.208c-0.104 0.081-0.185 0.185-0.243 0.289s-0.093 0.208-0.116 0.323c-0.023 0.104-0.035 0.219-0.046 0.323 0 0.104-0.012 0.185-0.012 0.265v9.143c0 0.127 0.012 0.265 0.023 0.416 0.012 0.173 0.069 0.335 0.15 0.485 0.081 0.162 0.22 0.3 0.405 0.404s0.439 0.162 0.775 0.162c0.324 0 0.578-0.058 0.763-0.162s0.312-0.242 0.405-0.404c0.081-0.15 0.127-0.323 0.139-0.485s0.023-0.3 0.023-0.416v-4.514h-1.538v0.543h0.96v3.948c0 0.093 0 0.208-0.012 0.323 0 0.104-0.035 0.208-0.081 0.312-0.046 0.092-0.116 0.173-0.208 0.231-0.093 0.069-0.243 0.092-0.439 0.092h-0.023c-0.197 0-0.347-0.035-0.451-0.092-0.104-0.069-0.173-0.139-0.22-0.231s-0.069-0.196-0.081-0.312c-0.012-0.115-0.012-0.231-0.012-0.323v-9.085c0-0.092 0-0.196 0.012-0.312 0.012-0.104 0.035-0.208 0.081-0.312 0.046-0.092 0.116-0.173 0.22-0.231s0.254-0.092 0.451-0.092h0.012c0.197 0 0.347 0.035 0.451 0.092 0.104 0.069 0.173 0.139 0.22 0.231s0.069 0.196 0.081 0.312c0.012 0.115 0.012 0.219 0.012 0.323v1.328h0.578v-1.351c0-0.081 0-0.173-0.012-0.266 0-0.139-0.023-0.242-0.046-0.358z"></path>
<path fill="#fff" style="fill: var(--color9, #fff)" d="M12.72 16.866c-0.023-0.115-0.058-0.219-0.116-0.323s-0.127-0.208-0.231-0.289c-0.104-0.081-0.231-0.15-0.382-0.208-0.15-0.046-0.335-0.069-0.555-0.069s-0.405 0.023-0.555 0.069c-0.15 0.046-0.278 0.115-0.382 0.208-0.104 0.081-0.185 0.185-0.243 0.289s-0.093 0.208-0.116 0.323c-0.023 0.104-0.035 0.219-0.046 0.323 0 0.092-0.012 0.185-0.012 0.265v9.143c0 0.081 0 0.173 0.012 0.265 0 0.104 0.023 0.208 0.046 0.312s0.069 0.219 0.116 0.323c0.058 0.115 0.139 0.208 0.243 0.289s0.231 0.15 0.382 0.208c0.15 0.046 0.335 0.081 0.555 0.081 0.324 0 0.578-0.058 0.763-0.162s0.312-0.242 0.405-0.404c0.081-0.15 0.127-0.323 0.139-0.485s0.023-0.3 0.023-0.416v-1.351h-0.578v1.328c0 0.092 0 0.208-0.012 0.323 0 0.104-0.035 0.208-0.081 0.311-0.046 0.093-0.116 0.173-0.208 0.231-0.104 0.069-0.254 0.093-0.451 0.093s-0.347-0.035-0.451-0.093c-0.104-0.069-0.173-0.15-0.22-0.242s-0.081-0.196-0.081-0.312c-0.012-0.115-0.012-0.219-0.012-0.323v-9.085c0-0.092 0-0.196 0.012-0.312 0.012-0.104 0.035-0.208 0.081-0.312 0.046-0.092 0.116-0.173 0.22-0.242s0.254-0.104 0.439-0.104h0.012c0.197 0 0.347 0.035 0.451 0.092 0.104 0.069 0.173 0.139 0.208 0.231 0.046 0.092 0.069 0.196 0.081 0.312s0.012 0.219 0.012 0.323v1.328h0.578v-1.351c0-0.081 0-0.173-0.012-0.265 0-0.104-0.012-0.208-0.035-0.323z"></path>
<path fill="#fff" style="fill: var(--color9, #fff)" d="M17.808 16.866c-0.023-0.104-0.058-0.219-0.116-0.323s-0.127-0.208-0.231-0.289c-0.104-0.081-0.231-0.15-0.382-0.208-0.15-0.046-0.335-0.069-0.555-0.069s-0.405 0.023-0.555 0.069c-0.15 0.046-0.278 0.115-0.382 0.208-0.104 0.081-0.185 0.185-0.243 0.289s-0.093 0.208-0.116 0.323c-0.023 0.104-0.035 0.219-0.046 0.323 0 0.104-0.012 0.185-0.012 0.265v9.143c0 0.081 0 0.162 0.012 0.265 0 0.104 0.023 0.208 0.046 0.312s0.069 0.219 0.116 0.323c0.058 0.104 0.139 0.208 0.243 0.289s0.231 0.15 0.382 0.208c0.15 0.046 0.335 0.081 0.555 0.081 0.324 0 0.578-0.058 0.763-0.162s0.312-0.242 0.405-0.404c0.081-0.15 0.127-0.323 0.139-0.485s0.023-0.3 0.023-0.416v-1.351h-0.578v1.328c0 0.092 0 0.208-0.012 0.323 0 0.104-0.035 0.208-0.081 0.311-0.046 0.093-0.116 0.173-0.208 0.231-0.104 0.069-0.254 0.093-0.451 0.093s-0.347-0.035-0.451-0.093c-0.104-0.069-0.173-0.15-0.22-0.242s-0.081-0.196-0.081-0.312c-0.012-0.115-0.012-0.231-0.012-0.323v-9.085c0-0.092 0-0.196 0.012-0.312 0.012-0.104 0.035-0.208 0.081-0.312 0.046-0.092 0.116-0.173 0.22-0.242s0.254-0.104 0.439-0.104h0.012c0.197 0 0.347 0.035 0.451 0.092 0.104 0.069 0.173 0.139 0.208 0.231 0.046 0.092 0.069 0.196 0.081 0.312s0.012 0.219 0.012 0.323v1.328h0.578v-1.351c0-0.081 0-0.162-0.012-0.265 0-0.104-0.012-0.219-0.035-0.323z"></path>
</symbol>
<symbol id="icon-arrow" viewBox="0 0 32 32">
<path fill="#fff" style="fill: var(--color9, #fff)" d="M22.638 16.226c0.058-0.058 0.094-0.138 0.094-0.226s-0.036-0.168-0.094-0.226l-2.036-2.036c-0.058-0.056-0.136-0.090-0.222-0.090-0.177 0-0.32 0.143-0.32 0.32 0 0.086 0.034 0.165 0.090 0.222l1.81 1.81-1.81 1.81c-0.060 0.058-0.098 0.14-0.098 0.23 0 0.177 0.143 0.32 0.32 0.32 0.090 0 0.172-0.037 0.23-0.098l2.037-2.037zM9.605 16.32h12.806v-0.64h-12.806v0.64z"></path>
<path fill="none" stroke="#fff" style="stroke: var(--color9, #fff)" stroke-linejoin="miter" stroke-linecap="butt" stroke-miterlimit="4" stroke-width="0.64" d="M31.697 16c0 8.66-7.024 15.68-15.688 15.68s-15.688-7.020-15.688-15.68 7.024-15.68 15.688-15.68c8.665 0 15.688 7.020 15.688 15.68z"></path>
</symbol>
</defs>
</svg>
